<svg width="112" height="68" viewBox="0 0 112 68" fill="none" xmlns="http://www.w3.org/2000/svg">
<rect width="112" height="68" rx="6" fill="#0B0217"/>
<rect width="112" height="68" rx="6" fill="url(#paint0_radial_1_432)"/>
<mask id="mask0_1_432" style="mask-type:alpha" maskUnits="userSpaceOnUse" x="0" y="0" width="112" height="68">
<rect width="112" height="68" fill="white"/>
</mask>
<g mask="url(#mask0_1_432)">
<rect width="112" height="68" rx="6" fill="url(#paint1_linear_1_432)"/>
</g>
<g opacity="0.4">
<rect x="36" y="12" width="40" height="10" rx="5" fill="#3F4050" fill-opacity="0.8"/>
<mask id="mask1_1_432" style="mask-type:alpha" maskUnits="userSpaceOnUse" x="36" y="12" width="40" height="10">
<rect x="36" y="12" width="40" height="10" fill="white"/>
</mask>
<g mask="url(#mask1_1_432)">
<rect x="36" y="12" width="40" height="10" rx="5" fill="url(#paint2_linear_1_432)"/>
</g>
</g>
<g opacity="0.4">
<rect x="18" y="30" width="76" height="6" rx="3" fill="#3F4050" fill-opacity="0.8"/>
<mask id="mask2_1_432" style="mask-type:alpha" maskUnits="userSpaceOnUse" x="18" y="30" width="76" height="6">
<rect x="18" y="30" width="76" height="6" fill="white"/>
</mask>
<g mask="url(#mask2_1_432)">
<rect x="18" y="30" width="76" height="6" rx="3" fill="url(#paint3_linear_1_432)"/>
</g>
</g>
<g opacity="0.4">
<rect x="24" y="40" width="64" height="6" rx="3" fill="#3F4050" fill-opacity="0.8"/>
<mask id="mask3_1_432" style="mask-type:alpha" maskUnits="userSpaceOnUse" x="24" y="40" width="64" height="6">
<rect x="24" y="40" width="64" height="6" fill="white"/>
</mask>
<g mask="url(#mask3_1_432)">
<rect x="24" y="40" width="64" height="6" rx="3" fill="url(#paint4_linear_1_432)"/>
</g>
</g>
<g opacity="0.4">
<rect x="12" y="50" width="88" height="6" rx="3" fill="#3F4050" fill-opacity="0.8"/>
<mask id="mask4_1_432" style="mask-type:alpha" maskUnits="userSpaceOnUse" x="12" y="50" width="88" height="6">
<rect x="12" y="50" width="88" height="6" fill="white"/>
</mask>
<g mask="url(#mask4_1_432)">
<rect x="12" y="50" width="88" height="6" rx="3" fill="url(#paint5_linear_1_432)"/>
</g>
</g>
<defs>
<radialGradient id="paint0_radial_1_432" cx="0" cy="0" r="1" gradientUnits="userSpaceOnUse" gradientTransform="translate(56 34) rotate(31.2637) scale(65.5134 58.1256)">
<stop stop-color="#887DFF" stop-opacity="0.16"/>
<stop offset="1" stop-color="#887DFF" stop-opacity="0"/>
</radialGradient>
<linearGradient id="paint1_linear_1_432" x1="56" y1="0" x2="56" y2="68" gradientUnits="userSpaceOnUse">
<stop stop-color="white" stop-opacity="0.1"/>
<stop offset="1" stop-color="white" stop-opacity="0"/>
</linearGradient>
<linearGradient id="paint2_linear_1_432" x1="36" y1="17" x2="76" y2="17" gradientUnits="userSpaceOnUse">
<stop offset="0.0125" stop-color="white" stop-opacity="0"/>
<stop offset="1" stop-color="white" stop-opacity="0.1"/>
</linearGradient>
<linearGradient id="paint3_linear_1_432" x1="18" y1="33" x2="94" y2="33" gradientUnits="userSpaceOnUse">
<stop offset="0.0125" stop-color="white" stop-opacity="0"/>
<stop offset="1" stop-color="white" stop-opacity="0.1"/>
</linearGradient>
<linearGradient id="paint4_linear_1_432" x1="24" y1="43" x2="88" y2="43" gradientUnits="userSpaceOnUse">
<stop offset="0.0125" stop-color="white" stop-opacity="0"/>
<stop offset="1" stop-color="white" stop-opacity="0.1"/>
</linearGradient>
<linearGradient id="paint5_linear_1_432" x1="12" y1="53" x2="100" y2="53" gradientUnits="userSpaceOnUse">
<stop offset="0.0125" stop-color="white" stop-opacity="0"/>
<stop offset="1" stop-color="white" stop-opacity="0.1"/>
</linearGradient>
</defs>
</svg>
