<svg width="1440" height="267" viewBox="0 0 1440 267" fill="none" xmlns="http://www.w3.org/2000/svg">
<g style="mix-blend-mode:luminosity" fill="transparent" stroke="#9B96B0" stroke-width="1.5" opacity="0.45">
<path d="M1134.63 197.341L1134.63 176.265L1124.17 176.265C1124.04 178.426 1122.6 180.497 1119.81 180.497C1114 180.497 1113.99 171.461 1119.81 171.461C1122.19 171.461 1123.6 172.974 1124.03 174.759L1136.14 174.759L1136.14 196.746L1161.66 223.974L1241.31 223.974L1241.31 225.48L1161.01 225.48L1134.62 197.341L1134.63 197.341Z" fill="url(#paint0_linear_102_1266)"/>
<path d="M1130.63 145.822L1098.44 145.822C1098.05 147.674 1096.64 149.285 1094.18 149.285C1088.37 149.285 1088.36 140.25 1094.18 140.25C1096.89 140.25 1098.35 142.222 1098.53 144.316L1131.3 144.316L1192.3 211.218L1327.61 211.218C1327.91 209.252 1329.34 207.498 1331.91 207.498C1337.72 207.498 1337.73 216.534 1331.91 216.534C1329.31 216.534 1327.88 214.719 1327.6 212.724L1191.63 212.724L1130.63 145.822L1130.63 145.822Z" fill="url(#paint1_linear_102_1266)"/>
<path d="M1235.35 187.259L1318.58 187.259L1318.58 191.076C1323.35 192.07 1323.02 200.006 1317.56 200.006C1312.1 200.006 1311.74 191.475 1317.08 190.993L1317.08 188.757L1236.01 188.757L1225.49 200.165L1194.8 200.165L1187.69 191.031C1187.03 191.468 1186.21 191.731 1185.22 191.731C1179.4 191.731 1179.4 182.695 1185.22 182.695C1189.38 182.695 1190.57 187.334 1188.76 189.962L1195.53 198.651L1224.82 198.651L1235.33 187.243L1235.35 187.259Z" fill="url(#paint2_linear_102_1266)"/>
<path d="M1438.84 170.414L1426.5 184.525L1426.5 239.892L1438.83 252.986L1437.73 254.018L1425 240.487L1425 183.961L1437.71 169.428L1438.84 170.414Z" fill="url(#paint3_linear_102_1266)"/>
<path d="M1363.51 203.643C1363.19 205.585 1361.76 207.31 1359.21 207.31C1353.4 207.31 1353.39 198.274 1359.21 198.274C1361.84 198.274 1363.27 200.119 1363.54 202.137L1371.4 202.137L1371.4 163.569L1429.2 100.078C1427.41 97.4429 1428.59 92.8271 1432.76 92.8271C1438.57 92.8271 1438.58 101.863 1432.76 101.863C1431.76 101.863 1430.93 101.592 1430.27 101.148L1372.9 164.157L1372.9 203.643L1363.51 203.643L1363.51 203.643Z" fill="url(#paint4_linear_102_1266)"/>
<path d="M1337.83 170.994C1338.18 169.089 1339.6 167.425 1342.11 167.425C1347.92 167.425 1347.93 176.461 1342.11 176.461C1339.44 176.461 1338 174.563 1337.78 172.5L1238.78 172.5L1145.73 69.4549L1058.35 69.4549L992.598 141.741L884.161 141.741L859.554 168.14L755.282 168.14L755.282 166.634L858.899 166.634L883.506 140.235L991.927 140.235L1057.68 67.9489L1146.39 67.9489L1239.44 170.994L1337.83 170.994Z" fill="url(#paint5_linear_102_1266)"/>
<path d="M769.897 209.923C769.558 211.843 768.135 213.53 765.613 213.53C759.8 213.53 759.792 204.494 765.613 204.494C768.263 204.494 769.701 206.376 769.942 208.417L782.886 208.417L806.213 182.017L835.534 182.017L835.534 180.707C830.045 180.376 830.143 171.687 835.858 171.687C841.242 171.687 841.648 179.435 837.04 180.579L837.04 183.523L806.891 183.523L783.564 209.923L769.897 209.923Z" fill="url(#paint6_linear_102_1266)"/>
<path d="M1002.24 245.78L1031.04 213.537L1031.27 213.289L1079.81 213.289L1120.41 257.948L1119.29 258.957L1079.14 214.795L1031.94 214.795L1003.14 247.037L1002.91 247.286L910.629 247.286L893.544 265.688L892.444 264.672L909.966 245.78L1002.24 245.78Z" fill="url(#paint7_linear_102_1266)"/>
<path d="M788.842 118.85L788.842 153.125L832.364 153.125L860.435 123.18L982.508 123.18L1010.69 92.7292C1008.78 90.1163 1009.93 85.3575 1014.16 85.3575C1019.97 85.3575 1019.98 94.3932 1014.16 94.3932C1013.21 94.3932 1012.43 94.1523 1011.79 93.7532L983.163 124.686L861.083 124.686L833.012 154.631L787.328 154.631L787.328 119.415L764.86 93.7381L744.665 93.7381L722.196 119.415L722.196 154.631L676.513 154.631L648.442 124.685L526.361 124.685L497.733 93.7531C497.093 94.1522 496.31 94.3856 495.369 94.3856C489.556 94.3856 489.548 85.3499 495.369 85.3499C499.593 85.3499 500.753 90.1163 498.84 92.7216L527.024 123.172L649.097 123.172L677.168 153.118L720.69 153.118L720.69 118.842L743.98 92.2246L765.537 92.2246L788.639 118.632L788.827 118.842L788.842 118.85Z" fill="url(#paint8_linear_102_1266)"/>
<path d="M1017.97 57.6331L987.109 90.7039L933.459 90.7039C933.173 92.6842 931.742 94.4688 929.152 94.4688C923.339 94.4687 923.331 85.433 929.152 85.433C931.735 85.433 933.165 87.2176 933.459 89.1979L986.454 89.1979L1017.31 56.1271L1071.28 56.1272L1071.28 56.85C1071.34 54.6438 1072.79 52.4903 1075.64 52.4903C1081.45 52.4903 1081.46 61.526 1075.64 61.526C1072.8 61.526 1071.34 59.3725 1071.28 57.1663L1071.28 57.6331L1017.97 57.6331Z" fill="url(#paint9_linear_102_1266)"/>
<path d="M1162.76 54.5235L1115.04 54.5235L1081.49 18.0944L1049.46 18.0944C1049.15 20.0521 1047.72 21.799 1045.16 21.799C1039.34 21.799 1039.34 12.7633 1045.16 12.7633C1047.77 12.7633 1049.2 14.5855 1049.47 16.5884L1082.16 16.5884L1115.7 53.0175L1162.76 53.0175L1162.76 54.5235L1162.76 54.5235Z" fill="url(#paint10_linear_102_1266)"/>
<path d="M1339.7 132.321C1339.93 130.273 1341.37 128.398 1344.03 128.398C1349.84 128.398 1349.85 137.434 1344.03 137.434C1341.51 137.434 1340.09 135.747 1339.74 133.827L1227.3 133.827L1186.32 88.5955L1186.12 88.3771L1186.12 44.2526L1176.54 33.3796L1147.16 33.3796C1146.85 35.3299 1145.41 37.0617 1142.86 37.0617C1137.05 37.0617 1137.04 28.026 1142.86 28.026C1145.48 28.026 1146.91 29.8557 1147.18 31.8737L1177.21 31.8737L1187.63 43.6879L1187.63 87.8049L1227.96 132.328L1339.7 132.328L1339.7 132.321Z" fill="url(#paint11_linear_102_1266)"/>
<path d="M1330.06 110.56L1282.42 58.153L1257.66 84.9966L1247.95 84.9966C1247.56 86.849 1246.15 88.4377 1243.7 88.4377C1237.89 88.4377 1237.88 79.402 1243.7 79.402C1246.42 79.402 1247.87 81.3823 1248.05 83.4907L1257.01 83.4907L1282.43 55.9242L1330.72 109.062L1372.67 109.062L1372.67 135.205L1360.52 148.059L1286.48 148.059C1286.12 149.933 1284.7 151.567 1282.22 151.567C1276.41 151.567 1276.4 142.532 1282.22 142.532C1284.92 142.532 1286.36 144.474 1286.56 146.553L1359.87 146.553L1371.17 134.603L1371.17 110.568L1330.07 110.568L1330.06 110.56Z" fill="url(#paint12_linear_102_1266)"/>
<path d="M1367.96 78.2345L1352.02 78.2345C1351.73 80.2148 1350.29 81.9993 1347.71 81.9993C1341.9 81.9993 1341.89 72.9636 1347.71 72.9636C1350.29 72.9636 1351.72 74.7482 1352.02 76.7285L1368.64 76.7285L1388.53 99.1748L1388.53 111.072C1393.46 111.923 1393.18 120.032 1387.66 120.032C1382.14 120.032 1381.85 111.682 1387.02 111.042L1387.02 99.747L1367.96 78.2345Z" fill="url(#paint13_linear_102_1266)"/>
<path d="M1381.59 62.761L1394.91 78.2724L1438.27 78.2724L1438.27 79.7783L1394.22 79.7783L1380.89 64.267L1339.89 64.267C1339.58 66.2247 1338.15 67.9716 1335.59 67.9716C1329.78 67.9716 1329.77 58.9359 1335.59 58.9359C1338.21 58.9359 1339.64 60.7581 1339.91 62.761L1381.59 62.761Z" fill="url(#paint14_linear_102_1266)"/>
<path d="M1438.28 52.8896L1438.28 54.3955L1418.97 54.3955L1403.32 36.8286C1402.7 37.1825 1401.95 37.3933 1401.07 37.3933C1395.25 37.3933 1395.24 28.3576 1401.07 28.3576C1405.34 28.3576 1406.48 33.2519 1404.45 35.8346L1419.65 52.882L1438.28 52.882L1438.28 52.8896Z" fill="url(#paint15_linear_102_1266)"/>
<path d="M1438 26.8511L1427.34 14.9766C1426.64 15.5263 1425.74 15.8651 1424.61 15.8651C1418.8 15.8651 1418.79 6.8294 1424.61 6.82941C1428.97 6.82941 1430.07 11.9195 1427.88 14.457L1438.56 26.3466L1438 26.8511Z" fill="url(#paint16_linear_102_1266)"/>
<path d="M1283.65 97.8428L1264.05 119.378L1246.25 119.378L1232.71 105.245C1232 105.937 1230.99 106.382 1229.7 106.382C1223.89 106.382 1223.88 97.3458 1229.7 97.3458C1233.56 97.3458 1234.86 101.314 1233.6 103.995L1246.89 117.872L1263.38 117.872L1282.99 96.3368L1298.39 96.3368L1311.8 110.643C1312.42 110.282 1313.18 110.071 1314.07 110.071C1319.88 110.071 1319.89 119.107 1314.07 119.107C1309.8 119.107 1308.66 114.228 1310.67 111.645L1297.73 97.8503L1283.65 97.8503L1283.65 97.8428Z" fill="url(#paint17_linear_102_1266)"/>
<path d="M1038.9 143.804C1033.09 143.804 1033.08 134.768 1038.9 134.768C1039.82 134.768 1040.6 135.002 1041.23 135.386L1069.97 103.384L1140.72 103.384L1189.77 156.943C1190.41 156.544 1191.2 156.296 1192.14 156.296C1197.96 156.296 1197.96 165.332 1192.14 165.332C1187.93 165.332 1186.77 160.588 1188.67 157.975L1140.05 104.89L1070.64 104.89L1042.34 136.402C1044.28 139.007 1043.14 143.804 1038.89 143.804L1038.9 143.804Z" fill="url(#paint18_linear_102_1266)"/>
<path d="M1022.55 123.33C1028.36 123.33 1028.37 132.366 1022.55 132.366C1021.51 132.366 1020.66 132.072 1019.99 131.598L987.786 166.988L897.429 166.988L888.905 176.37C891.013 178.93 889.906 183.922 885.577 183.922C879.764 183.922 879.756 174.887 885.577 174.887C886.42 174.887 887.143 175.082 887.738 175.406L896.758 165.482L987.116 165.482L1018.94 130.506C1017.23 127.863 1018.42 123.33 1022.54 123.33L1022.55 123.33Z" fill="url(#paint19_linear_102_1266)"/>
<path d="M1167.15 49.3129C1172.96 49.3129 1172.97 58.3486 1167.15 58.3486C1161.32 58.3486 1161.32 49.3129 1167.15 49.3129Z" fill="url(#paint20_linear_102_1266)"/>
<path d="M1219 78.1521C1213.19 78.1521 1213.18 69.1164 1219 69.1164C1219.94 69.1164 1220.73 69.3574 1221.37 69.7564L1242.96 45.3298L1330.24 45.3299C1330.55 43.3721 1331.98 41.6252 1334.54 41.6252C1340.35 41.6252 1340.36 50.661 1334.54 50.661C1331.93 50.661 1330.5 48.8387 1330.23 46.8358L1243.64 46.8358L1222.47 70.788C1224.38 73.4008 1223.23 78.1597 1219 78.1597L1219 78.1521Z" fill="url(#paint21_linear_102_1266)"/>
<path d="M1393.66 9.03598C1392.53 9.03598 1391.62 8.68961 1390.92 8.13994L1369.91 31.4446L1221.87 31.4445L1204.22 50.9768L1204.22 78.2948C1209.32 78.9951 1209.09 87.2778 1203.51 87.2778C1197.93 87.2778 1197.71 79.1005 1202.72 78.3099L1202.72 50.397L1221.21 29.9386L1369.24 29.9386L1389.94 6.98788C1388.39 4.32234 1389.63 0.000254559 1393.66 0.000255263C1399.47 0.00025628 1399.48 9.03598 1393.66 9.03598Z" fill="url(#paint22_linear_102_1266)"/>
<path d="M1391.51 183.539C1397.2 183.539 1397.33 192.16 1391.89 192.552L1391.89 239.56L1411.5 261.457L1410.38 262.458L1390.39 240.132L1390.39 192.439C1385.73 191.355 1386.09 183.531 1391.51 183.531L1391.51 183.539Z" fill="url(#paint23_linear_102_1266)"/>
<path d="M1408.17 222.822C1402.65 222.822 1402.37 214.682 1407.34 213.861L1407.34 164.534L1437.72 131.636L1438.83 132.66L1408.84 165.128L1408.84 213.839C1413.97 214.509 1413.76 222.829 1408.17 222.829L1408.17 222.822Z" fill="url(#paint24_linear_102_1266)"/>
<path d="M1435.63 117.917C1429.82 117.917 1429.81 108.881 1435.63 108.881C1441.46 108.881 1441.46 117.917 1435.63 117.917Z" fill="url(#paint25_linear_102_1266)"/>
<path d="M1245.85 229.681C1240.04 229.681 1240.03 220.646 1245.85 220.646C1251.67 220.646 1251.67 229.681 1245.85 229.681Z" fill="url(#paint26_linear_102_1266)"/>
<path d="M812.779 126.636C807.154 126.636 806.966 118.18 812.229 117.63L812.229 95.2896L793.413 95.2896L783.601 85.0265C782.886 85.7042 781.892 86.1409 780.612 86.1409C774.799 86.1409 774.791 77.1052 780.612 77.1052C784.821 77.1052 785.988 81.8489 784.098 84.4618L793.736 94.5441L812.982 94.5441L812.982 117.615C818.592 117.826 818.54 126.644 812.779 126.644L812.779 126.636Z" fill="url(#paint27_linear_102_1266)"/>
<path d="M792.524 238.009C786.711 238.009 786.704 228.973 792.524 228.973C793.578 228.973 794.437 229.274 795.107 229.756L826.845 194.811L827.071 194.562L988.758 194.562L1020.1 160.535L1090.93 160.535L1140.77 215.186C1141.43 214.735 1142.26 214.456 1143.27 214.456C1149.08 214.456 1149.09 223.492 1143.27 223.492C1139.12 223.492 1137.93 218.891 1139.71 216.256L1090.26 162.041L1020.75 162.041L989.639 195.827L989.413 196.068L827.734 196.068L796.139 230.856C797.833 233.506 796.636 238.009 792.524 238.009Z" fill="url(#paint28_linear_102_1266)"/>
<path d="M702.988 182.017L726.315 208.417L739.258 208.417C739.492 206.369 740.93 204.494 743.588 204.494C749.401 204.494 749.409 213.53 743.588 213.53C741.073 213.53 739.65 211.843 739.304 209.923L725.637 209.923L702.31 183.523L672.161 183.523L672.161 180.572C667.567 179.427 667.951 171.679 673.343 171.679C679.05 171.679 679.163 180.368 673.667 180.7L673.667 182.01L702.988 182.01L702.988 182.017Z" fill="url(#paint29_linear_102_1266)"/>
<path d="M1022.08 33.071C1021.19 33.071 1020.44 32.8602 1019.82 32.4988L984.488 71.631L932.134 71.631L901.149 105.922L900.923 106.17L840.73 106.17C840.331 108.007 838.922 109.581 836.49 109.581C830.677 109.581 830.67 100.545 836.49 100.545C839.224 100.545 840.677 102.548 840.835 104.664L900.252 104.664L931.463 70.1251L983.818 70.1251L1018.68 31.5048C1016.66 28.9221 1017.78 24.0353 1022.07 24.0353C1027.88 24.0353 1027.89 33.071 1022.07 33.071L1022.08 33.071Z" fill="url(#paint30_linear_102_1266)"/>
<path d="M978.75 40.6308C976.378 40.6308 974.97 39.1248 974.534 37.3478L936.96 37.3478L887.971 91.3137L887.745 91.5622L859.177 91.5622C858.778 93.3994 857.37 94.9731 854.938 94.9731C849.125 94.9731 849.118 85.9374 854.938 85.9374C857.671 85.9374 859.125 87.9403 859.283 90.0562L887.075 90.0562L936.064 36.0903L936.29 35.8419L974.391 35.8419C974.503 33.6808 975.949 31.5951 978.743 31.5951C984.556 31.5951 984.563 40.6308 978.743 40.6308L978.75 40.6308Z" fill="url(#paint31_linear_102_1266)"/>
<path d="M268.233 225.479L268.233 223.973L347.883 223.973L373.409 196.746L373.409 174.759L385.517 174.759C385.946 172.974 387.354 171.461 389.734 171.461C395.547 171.461 395.554 180.496 389.734 180.496C386.948 180.496 385.502 178.426 385.382 176.265L374.915 176.265L374.915 197.34L348.538 225.479L268.233 225.479Z" fill="url(#paint32_linear_102_1266)"/>
<path d="M274.197 187.258L284.708 198.666L313.999 198.666L320.768 189.976C318.961 187.348 320.144 182.71 324.315 182.71C330.128 182.71 330.136 191.746 324.315 191.746C323.321 191.746 322.5 191.475 321.853 191.038L314.737 200.172L284.046 200.172L273.534 188.764L192.461 188.764L192.461 191C197.792 191.482 197.642 200.014 191.979 200.014C186.317 200.014 186.181 192.077 190.955 191.083L190.955 187.266L274.189 187.266L274.197 187.258Z" fill="url(#paint33_linear_102_1266)"/>
<path d="M117.653 192.551C112.231 192.16 112.344 183.538 118.037 183.538C123.729 183.538 123.827 191.361 119.159 192.446L119.159 240.139L99.1672 262.465L98.0453 261.464L117.653 239.567L117.653 192.559L117.653 192.551Z" fill="url(#paint34_linear_102_1266)"/>
<path d="M62.3542 158.344L71.8418 169.428L84.552 183.96L84.552 240.486L71.8192 254.017L70.7273 252.986L83.0461 239.891L83.0461 184.525L70.6972 170.407L62.3091 160.61L30.5861 195.165L30.3678 195.413L0.843516 195.413L0.843516 193.907L29.7051 193.907L62.3542 158.344Z" fill="url(#paint35_linear_102_1266)"/>
<path d="M626.048 140.235L650.656 166.634L754.273 166.634L754.273 168.14L650 168.14L625.393 141.741L516.957 141.741L451.207 69.4549L363.824 69.4548L270.997 172.251L270.771 172.5L171.769 172.5C171.551 174.555 170.105 176.46 167.44 176.46C161.627 176.46 161.619 167.425 167.44 167.425C169.94 167.425 171.363 169.096 171.717 170.994L270.108 170.994L362.935 68.1974L363.161 67.9489L451.877 67.9489L517.627 140.235L626.048 140.235Z" fill="url(#paint36_linear_102_1266)"/>
<path d="M478.284 213.289L507.311 245.78L599.581 245.78L617.11 264.672L616.004 265.689L598.926 247.286L506.634 247.286L477.606 214.795L430.402 214.795L390.261 258.957L389.146 257.948L429.739 213.289L478.284 213.289Z" fill="url(#paint37_linear_102_1266)"/>
<path d="M612.788 165.482L621.809 175.406C622.411 175.082 623.127 174.887 623.97 174.887C629.783 174.887 629.79 183.922 623.97 183.922C619.648 183.922 618.533 178.93 620.642 176.37L612.118 166.995L521.761 166.995L489.556 131.605C488.886 132.08 488.035 132.374 486.996 132.374C481.183 132.374 481.175 123.338 486.996 123.338C491.115 123.338 492.319 127.871 490.603 130.514L522.431 165.489L612.788 165.489L612.788 165.482Z" fill="url(#paint38_linear_102_1266)"/>
<path d="M577.421 71.6309L525.066 71.6309L489.737 32.4986C489.119 32.86 488.366 33.0709 487.478 33.0709C481.665 33.0709 481.657 24.0351 487.478 24.0351C491.755 24.0351 492.884 28.922 490.866 31.5047L525.729 70.1249L578.084 70.1249L609.294 104.664L670.03 104.664L670.03 106.17L608.624 106.17L577.413 71.6309L577.421 71.6309Z" fill="url(#paint39_linear_102_1266)"/>
<path d="M492.244 56.1271L523.101 89.1979L576.096 89.1979C576.382 87.2176 577.812 85.433 580.403 85.433C586.216 85.433 586.223 94.4688 580.403 94.4688C577.82 94.4688 576.389 92.6842 576.096 90.7039L522.446 90.7039L491.589 57.6331L438.278 57.6331L438.278 57.1738C438.21 59.3725 436.757 61.526 433.918 61.526C428.105 61.526 428.098 52.4903 433.918 52.4903C436.757 52.4903 438.203 54.6438 438.278 56.8425L438.278 56.1271L492.244 56.1271Z" fill="url(#paint40_linear_102_1266)"/>
<path d="M149.685 146.545L222.994 146.545C223.19 144.467 224.636 142.524 227.332 142.524C233.145 142.524 233.152 151.56 227.332 151.56C224.862 151.56 223.446 149.926 223.07 148.051L149.037 148.051L136.884 135.197L136.884 109.054L178.832 109.054L226.571 56.5263L227.121 55.9164L252.541 83.4829L261.502 83.4829C261.675 81.3746 263.121 79.3942 265.846 79.3942C271.659 79.3942 271.667 88.43 265.846 88.43C263.407 88.43 261.991 86.8336 261.6 84.9889L251.886 84.9889L227.128 58.1452L179.713 110.311L179.487 110.56L138.382 110.56L138.382 134.595L149.685 146.545Z" fill="url(#paint41_linear_102_1266)"/>
<path d="M1.42322 79.7705L1.42322 78.2646L114.633 78.2646L127.961 62.7532L169.638 62.7533C169.902 60.7428 171.34 58.9281 173.953 58.9281C179.766 58.9281 179.773 67.9638 173.953 67.9638C171.4 67.9638 169.962 66.2169 169.653 64.2592L128.654 64.2592L115.326 79.7705L1.42322 79.7705Z" fill="url(#paint42_linear_102_1266)"/>
<path d="M179.322 46.836C179.058 48.8465 177.62 50.6611 175.007 50.6611C169.194 50.6611 169.187 41.6254 175.007 41.6254C177.56 41.6254 178.998 43.3723 179.307 45.33L266.584 45.3301L288.18 69.7567C288.82 69.3576 289.603 69.1166 290.544 69.1166C296.357 69.1166 296.365 78.1524 290.544 78.1524C286.32 78.1524 285.16 73.386 287.073 70.7807L265.899 46.836L179.314 46.836L179.322 46.836Z" fill="url(#paint43_linear_102_1266)"/>
<path d="M366.278 223.491C360.465 223.491 360.458 214.456 366.278 214.456C367.287 214.456 368.123 214.734 368.778 215.186L418.618 160.535L489.451 160.535L520.789 194.562L682.476 194.562L714.997 230.374L714.659 230.682C715.359 230.08 716.308 229.696 717.497 229.696C723.31 229.696 723.318 238.732 717.497 238.732C712.995 238.732 711.978 233.318 714.448 230.871L713.875 231.39L681.799 196.068L520.119 196.068L488.78 162.041L419.273 162.041L369.825 216.263C371.602 218.898 370.42 223.499 366.263 223.499L366.278 223.491Z" fill="url(#paint44_linear_102_1266)"/>
<path d="M366.678 37.0612C364.133 37.0612 362.694 35.3294 362.378 33.3792L333.005 33.3792L323.419 44.2522L323.419 88.3766L282.465 133.578L282.239 133.826L169.797 133.826C169.458 135.746 168.035 137.433 165.512 137.433C159.699 137.433 159.692 128.397 165.512 128.397C168.163 128.397 169.601 130.28 169.842 132.32L281.576 132.32L321.913 87.7969L321.913 43.6799L332.327 31.8657L362.363 31.8657C362.627 29.8553 364.057 28.018 366.678 28.018C372.491 28.018 372.498 37.0537 366.678 37.0537L366.678 37.0612Z" fill="url(#paint45_linear_102_1266)"/>
<path d="M342.409 49.3129C348.222 49.3129 348.23 58.3486 342.409 58.3486C336.589 58.3486 336.589 49.3129 342.409 49.3129Z" fill="url(#paint46_linear_102_1266)"/>
<path d="M306.025 87.2852C300.461 87.2852 300.22 79.0024 305.318 78.3022L305.318 50.9841L287.668 31.4519L139.632 31.4519L118.617 8.14723C117.924 8.6969 117.02 9.04325 115.883 9.04325C110.07 9.04325 110.063 0.00752233 115.883 0.00752335C119.904 0.00752405 121.147 4.32961 119.603 6.99515L140.295 29.9459L288.33 29.9459L306.824 50.4044L306.824 78.3172C311.816 79.1079 311.56 87.2852 306.025 87.2852Z" fill="url(#paint47_linear_102_1266)"/>
<path d="M195.48 119.106C189.667 119.106 189.66 110.071 195.48 110.071C196.377 110.071 197.13 110.289 197.747 110.643L211.157 96.3363L226.556 96.3363L246.163 117.871L262.654 117.871L275.951 103.994C274.694 101.314 275.989 97.3453 279.852 97.3453C285.665 97.3453 285.672 106.381 279.852 106.381C278.564 106.381 277.555 105.937 276.84 105.244L263.301 119.377L245.508 119.377L225.901 97.8423L211.82 97.8423L198.884 111.637C200.894 114.227 199.765 119.099 195.488 119.099L195.48 119.106Z" fill="url(#paint48_linear_102_1266)"/>
<path d="M108.489 37.3928C107.601 37.3928 106.855 37.182 106.238 36.8281L90.5833 54.395L17.7553 54.395L0.000125435 35.1489L1.107 34.1249L18.4104 52.8815L89.8981 52.8815L105.093 35.8266C103.068 33.2439 104.197 28.3495 108.482 28.3495C114.295 28.3495 114.302 37.3853 108.482 37.3853L108.489 37.3928Z" fill="url(#paint49_linear_102_1266)"/>
<path d="M84.936 15.8652C83.9722 15.8652 83.1665 15.6092 82.519 15.1951L71.6083 27.3482L27.3107 27.3481L27.3107 25.8422L70.9382 25.8422L81.4347 14.1484C79.5748 11.5281 80.7344 6.82198 84.936 6.82198C90.749 6.82198 90.7565 15.8577 84.936 15.8577L84.936 15.8652Z" fill="url(#paint50_linear_102_1266)"/>
<path d="M177.635 216.542C171.822 216.542 171.815 207.506 177.635 207.506C180.195 207.506 181.633 209.26 181.935 211.226L317.245 211.226L378.251 144.324L411.021 144.324C411.201 142.223 412.647 140.258 415.365 140.258C421.178 140.258 421.186 149.293 415.365 149.293C412.918 149.293 411.502 147.69 411.111 145.83L378.914 145.83L317.907 212.732L181.95 212.732C181.679 214.735 180.24 216.542 177.635 216.542Z" fill="url(#paint51_linear_102_1266)"/>
<path d="M141.876 238.649C144.301 238.649 145.709 240.215 146.115 242.045L375.352 242.045L424.732 188.267L424.958 188.026L492.154 188.026L515.225 214.938L607.495 214.938L637.674 248.965L873.273 248.965L903.844 214.938L993.818 214.938L1017.85 188.026L1086 188.026L1134.44 241.857L1363.48 241.857C1363.94 240.11 1365.34 238.649 1367.68 238.649C1373.49 238.649 1373.5 247.685 1367.68 247.685C1364.85 247.685 1363.4 245.554 1363.32 243.363L1133.77 243.363L1085.33 189.532L1018.52 189.532L994.495 216.444L904.522 216.444L873.951 250.471L637.004 250.471L606.825 216.444L514.54 216.444L491.469 189.532L425.628 189.532L376.248 243.31L376.022 243.551L146.221 243.551C146.063 245.674 144.617 247.685 141.869 247.685C136.056 247.685 136.048 238.649 141.869 238.649L141.876 238.649Z" fill="url(#paint52_linear_102_1266)"/>
<path d="M121.877 120.032C116.365 120.032 116.072 111.923 121.011 111.072L121.011 99.1748L140.905 76.7285L157.523 76.7285C157.809 74.7482 159.24 72.9636 161.83 72.9636C167.643 72.9636 167.651 81.9993 161.83 81.9993C159.247 81.9993 157.817 80.2148 157.523 78.2345L141.583 78.2345L122.517 99.747L122.517 111.042C127.683 111.682 127.479 120.032 121.877 120.032Z" fill="url(#paint53_linear_102_1266)"/>
<path d="M76.7964 101.863C70.9834 101.863 70.9759 92.8269 76.7964 92.8269C80.9529 92.8269 82.1426 97.4502 80.3505 100.078L137.961 163.351L138.157 163.569L138.157 202.137L146.01 202.137C146.266 200.119 147.704 198.274 150.332 198.274C156.145 198.274 156.153 207.31 150.332 207.31C147.795 207.31 146.356 205.585 146.04 203.643L136.651 203.643L136.651 164.156L79.2812 101.147C78.6262 101.592 77.7979 101.863 76.7964 101.863Z" fill="url(#paint54_linear_102_1266)"/>
<path d="M317.395 156.303C318.344 156.303 319.135 156.544 319.775 156.951L368.824 103.391L439.566 103.391L468.307 135.393C468.94 135.009 469.715 134.776 470.641 134.776C476.454 134.776 476.462 143.811 470.641 143.811C466.402 143.811 465.25 139.015 467.193 136.409L438.888 104.897L369.479 104.897L320.859 157.982C322.757 160.595 321.604 165.339 317.38 165.339C311.567 165.339 311.56 156.303 317.38 156.303L317.395 156.303Z" fill="url(#paint55_linear_102_1266)"/>
<path d="M263.7 229.681C257.887 229.681 257.88 220.645 263.7 220.645C269.521 220.645 269.521 229.681 263.7 229.681Z" fill="url(#paint56_linear_102_1266)"/>
<path d="M654.601 94.9732C652.177 94.9732 650.761 93.3994 650.362 91.5622L621.794 91.5622L572.579 37.3478L535.013 37.3478C534.577 39.1248 533.176 40.6308 530.797 40.6308C524.984 40.6308 524.976 31.595 530.797 31.595C533.59 31.595 535.036 33.6733 535.149 35.8418L573.25 35.8418L622.464 90.0562L650.257 90.0562C650.415 87.9404 651.868 85.9374 654.601 85.9374C660.414 85.9374 660.422 94.9732 654.601 94.9732Z" fill="url(#paint57_linear_102_1266)"/>
<path d="M464.407 21.7912C461.854 21.7912 460.416 20.0443 460.107 18.0866L428.068 18.0866L394.741 54.2747L394.515 54.5156L346.792 54.5156L346.792 53.0097L393.853 53.0097L427.18 16.8216L427.405 16.5806L460.092 16.5806C460.356 14.5702 461.794 12.7555 464.407 12.7555C470.22 12.7555 470.227 21.7913 464.407 21.7912Z" fill="url(#paint58_linear_102_1266)"/>
<path d="M56.2325 146.544L63.5816 146.544L63.5816 148.05L56.8952 148.05L23.734 184.743L0.843506 184.743L0.843506 183.237L23.0639 183.237L56.2325 146.544Z" fill="url(#paint59_linear_102_1266)"/>
<path d="M60.6826 120.01L71.8117 131.643L71.8267 131.628L102.006 164.307L102.209 164.526L102.209 213.853C107.171 214.674 106.908 222.814 101.374 222.814C95.8392 222.814 95.5606 214.501 100.703 213.823L100.703 165.113L71.6535 133.661L60.7128 122.223L16.1741 171.897L15.9482 172.146L0.843515 172.146L0.843515 170.64L15.2781 170.64L60.6751 120.01L60.6826 120.01Z" fill="url(#paint60_linear_102_1266)"/>
<path d="M18.2674 93.0979L56.993 93.0979L71.8267 109.362C72.414 109.061 73.1067 108.88 73.9124 108.88C79.7254 108.88 79.7329 117.916 73.9124 117.916C69.5527 117.916 68.4608 112.833 70.6369 110.296L56.3304 94.6038L18.9225 94.6038L11.1066 102.917L0.549807 102.917L0.549808 101.411L10.4439 101.411L18.2598 93.0979L18.2674 93.0979Z" fill="url(#paint61_linear_102_1266)"/>
<path d="M28.9823 235.75L43.0705 235.75L43.0705 266.878L41.5645 266.878L41.5645 237.256L29.6073 237.256L16.8744 249.996L0.843509 249.996L0.843509 248.49L16.2494 248.49L28.9823 235.75Z" fill="url(#paint62_linear_102_1266)"/>
<path d="M36.8434 206.964L57.4448 206.964L57.4448 248.852L55.9389 248.852L55.9389 208.47L37.5135 208.47L14.3519 234.417L0.843508 234.417L0.843509 232.912L13.6742 232.912L36.8434 206.964Z" fill="url(#paint63_linear_102_1266)"/>
</g>
<defs>
<linearGradient id="paint0_linear_102_1266" x1="1182.97" y1="227.225" x2="1198.4" y2="179.273" gradientUnits="userSpaceOnUse">
<stop stop-color="white" stop-opacity="0.6"/>
<stop offset="1" stop-color="#273EE1"/>
</linearGradient>
<linearGradient id="paint1_linear_102_1266" x1="1222.03" y1="218.998" x2="1238.48" y2="148.091" gradientUnits="userSpaceOnUse">
<stop stop-color="white" stop-opacity="0.6"/>
<stop offset="1" stop-color="#273EE1"/>
</linearGradient>
<linearGradient id="paint2_linear_102_1266" x1="1256.53" y1="200.729" x2="1258.11" y2="183.763" gradientUnits="userSpaceOnUse">
<stop stop-color="white" stop-opacity="0.6"/>
<stop offset="1" stop-color="#273EE1"/>
</linearGradient>
<linearGradient id="paint3_linear_102_1266" x1="1432.42" y1="256.75" x2="1449.7" y2="252.977" gradientUnits="userSpaceOnUse">
<stop stop-color="white" stop-opacity="0.6"/>
<stop offset="1" stop-color="#273EE1"/>
</linearGradient>
<linearGradient id="paint4_linear_102_1266" x1="1398.99" y1="211.008" x2="1455.01" y2="157.294" gradientUnits="userSpaceOnUse">
<stop stop-color="white" stop-opacity="0.6"/>
<stop offset="1" stop-color="#273EE1"/>
</linearGradient>
<linearGradient id="paint5_linear_102_1266" x1="1072.43" y1="179.966" x2="1086.78" y2="75.6492" gradientUnits="userSpaceOnUse">
<stop stop-color="white" stop-opacity="0.6"/>
<stop offset="1" stop-color="#273EE1"/>
</linearGradient>
<linearGradient id="paint6_linear_102_1266" x1="803.614" y1="214.881" x2="817.673" y2="179.478" gradientUnits="userSpaceOnUse">
<stop stop-color="white" stop-opacity="0.6"/>
<stop offset="1" stop-color="#273EE1"/>
</linearGradient>
<linearGradient id="paint7_linear_102_1266" x1="1014.74" y1="267.381" x2="1023.32" y2="217.533" gradientUnits="userSpaceOnUse">
<stop stop-color="white" stop-opacity="0.6"/>
<stop offset="1" stop-color="#273EE1"/>
</linearGradient>
<linearGradient id="paint8_linear_102_1266" x1="773.994" y1="156.87" x2="780.61" y2="89.6572" gradientUnits="userSpaceOnUse">
<stop stop-color="white" stop-opacity="0.6"/>
<stop offset="1" stop-color="#273EE1"/>
</linearGradient>
<linearGradient id="paint9_linear_102_1266" x1="1008.05" y1="95.825" x2="1016.06" y2="56.3283" gradientUnits="userSpaceOnUse">
<stop stop-color="white" stop-opacity="0.6"/>
<stop offset="1" stop-color="#273EE1"/>
</linearGradient>
<linearGradient id="paint10_linear_102_1266" x1="1106.22" y1="55.8726" x2="1116.07" y2="17.494" gradientUnits="userSpaceOnUse">
<stop stop-color="white" stop-opacity="0.6"/>
<stop offset="1" stop-color="#273EE1"/>
</linearGradient>
<linearGradient id="paint11_linear_102_1266" x1="1251.1" y1="140.968" x2="1287.42" y2="47.9898" gradientUnits="userSpaceOnUse">
<stop stop-color="white" stop-opacity="0.6"/>
<stop offset="1" stop-color="#273EE1"/>
</linearGradient>
<linearGradient id="paint12_linear_102_1266" x1="1310.87" y1="154.657" x2="1349.94" y2="81.9776" gradientUnits="userSpaceOnUse">
<stop stop-color="white" stop-opacity="0.6"/>
<stop offset="1" stop-color="#273EE1"/>
</linearGradient>
<linearGradient id="paint13_linear_102_1266" x1="1369.46" y1="121.553" x2="1391.37" y2="91.3224" gradientUnits="userSpaceOnUse">
<stop stop-color="white" stop-opacity="0.6"/>
<stop offset="1" stop-color="#273EE1"/>
</linearGradient>
<linearGradient id="paint14_linear_102_1266" x1="1388.65" y1="80.4517" x2="1391.57" y2="60.4615" gradientUnits="userSpaceOnUse">
<stop stop-color="white" stop-opacity="0.6"/>
<stop offset="1" stop-color="#273EE1"/>
</linearGradient>
<linearGradient id="paint15_linear_102_1266" x1="1419.01" y1="55.2367" x2="1428.82" y2="34.3364" gradientUnits="userSpaceOnUse">
<stop stop-color="white" stop-opacity="0.6"/>
<stop offset="1" stop-color="#273EE1"/>
</linearGradient>
<linearGradient id="paint16_linear_102_1266" x1="1430.07" y1="27.4979" x2="1439.69" y2="15.7668" gradientUnits="userSpaceOnUse">
<stop stop-color="white" stop-opacity="0.6"/>
<stop offset="1" stop-color="#273EE1"/>
</linearGradient>
<linearGradient id="paint17_linear_102_1266" x1="1275.28" y1="120.122" x2="1279.33" y2="98.3035" gradientUnits="userSpaceOnUse">
<stop stop-color="white" stop-opacity="0.6"/>
<stop offset="1" stop-color="#273EE1"/>
</linearGradient>
<linearGradient id="paint18_linear_102_1266" x1="1121.43" y1="167.333" x2="1137.5" y2="111.26" gradientUnits="userSpaceOnUse">
<stop stop-color="white" stop-opacity="0.6"/>
<stop offset="1" stop-color="#273EE1"/>
</linearGradient>
<linearGradient id="paint19_linear_102_1266" x1="959.376" y1="185.88" x2="976.237" y2="131.783" gradientUnits="userSpaceOnUse">
<stop stop-color="white" stop-opacity="0.6"/>
<stop offset="1" stop-color="#273EE1"/>
</linearGradient>
<linearGradient id="paint20_linear_102_1266" x1="1167.46" y1="58.6406" x2="1171.75" y2="53.1157" gradientUnits="userSpaceOnUse">
<stop stop-color="white" stop-opacity="0.6"/>
<stop offset="1" stop-color="#273EE1"/>
</linearGradient>
<linearGradient id="paint21_linear_102_1266" x1="1281.3" y1="79.34" x2="1288.82" y2="45.2103" gradientUnits="userSpaceOnUse">
<stop stop-color="white" stop-opacity="0.6"/>
<stop offset="1" stop-color="#273EE1"/>
</linearGradient>
<linearGradient id="paint22_linear_102_1266" x1="1305.83" y1="90.0975" x2="1331.2" y2="12.9509" gradientUnits="userSpaceOnUse">
<stop stop-color="white" stop-opacity="0.6"/>
<stop offset="1" stop-color="#273EE1"/>
</linearGradient>
<linearGradient id="paint23_linear_102_1266" x1="1400.21" y1="265.008" x2="1427.43" y2="253.803" gradientUnits="userSpaceOnUse">
<stop stop-color="white" stop-opacity="0.6"/>
<stop offset="1" stop-color="#273EE1"/>
</linearGradient>
<linearGradient id="paint24_linear_102_1266" x1="1422.6" y1="225.775" x2="1458.85" y2="207.203" gradientUnits="userSpaceOnUse">
<stop stop-color="white" stop-opacity="0.6"/>
<stop offset="1" stop-color="#273EE1"/>
</linearGradient>
<linearGradient id="paint25_linear_102_1266" x1="1435.95" y1="118.208" x2="1440.24" y2="112.684" gradientUnits="userSpaceOnUse">
<stop stop-color="white" stop-opacity="0.6"/>
<stop offset="1" stop-color="#273EE1"/>
</linearGradient>
<linearGradient id="paint26_linear_102_1266" x1="1246.17" y1="229.973" x2="1250.46" y2="224.448" gradientUnits="userSpaceOnUse">
<stop stop-color="white" stop-opacity="0.6"/>
<stop offset="1" stop-color="#273EE1"/>
</linearGradient>
<linearGradient id="paint27_linear_102_1266" x1="798.188" y1="128.244" x2="822.338" y2="101.643" gradientUnits="userSpaceOnUse">
<stop stop-color="white" stop-opacity="0.6"/>
<stop offset="1" stop-color="#273EE1"/>
</linearGradient>
<linearGradient id="paint28_linear_102_1266" x1="981.002" y1="240.512" x2="992.948" y2="166.553" gradientUnits="userSpaceOnUse">
<stop stop-color="white" stop-opacity="0.6"/>
<stop offset="1" stop-color="#273EE1"/>
</linearGradient>
<linearGradient id="paint29_linear_102_1266" x1="711.347" y1="214.882" x2="725.411" y2="179.474" gradientUnits="userSpaceOnUse">
<stop stop-color="white" stop-opacity="0.6"/>
<stop offset="1" stop-color="#273EE1"/>
</linearGradient>
<linearGradient id="paint30_linear_102_1266" x1="936.364" y1="112.345" x2="961.298" y2="36.7771" gradientUnits="userSpaceOnUse">
<stop stop-color="white" stop-opacity="0.6"/>
<stop offset="1" stop-color="#273EE1"/>
</linearGradient>
<linearGradient id="paint31_linear_102_1266" x1="921.672" y1="97.0207" x2="941.39" y2="42.0064" gradientUnits="userSpaceOnUse">
<stop stop-color="white" stop-opacity="0.6"/>
<stop offset="1" stop-color="#273EE1"/>
</linearGradient>
<linearGradient id="paint32_linear_102_1266" x1="335.754" y1="227.224" x2="351.178" y2="179.273" gradientUnits="userSpaceOnUse">
<stop stop-color="white" stop-opacity="0.6"/>
<stop offset="1" stop-color="#273EE1"/>
</linearGradient>
<linearGradient id="paint33_linear_102_1266" x1="263.255" y1="200.736" x2="264.828" y2="183.777" gradientUnits="userSpaceOnUse">
<stop stop-color="white" stop-opacity="0.6"/>
<stop offset="1" stop-color="#273EE1"/>
</linearGradient>
<linearGradient id="paint34_linear_102_1266" x1="111.162" y1="265.015" x2="138.456" y2="253.733" gradientUnits="userSpaceOnUse">
<stop stop-color="white" stop-opacity="0.6"/>
<stop offset="1" stop-color="#273EE1"/>
</linearGradient>
<linearGradient id="paint35_linear_102_1266" x1="45.7496" y1="257.108" x2="92.0515" y2="203.054" gradientUnits="userSpaceOnUse">
<stop stop-color="white" stop-opacity="0.6"/>
<stop offset="1" stop-color="#273EE1"/>
</linearGradient>
<linearGradient id="paint36_linear_102_1266" x1="480.229" y1="179.966" x2="494.579" y2="75.6491" gradientUnits="userSpaceOnUse">
<stop stop-color="white" stop-opacity="0.6"/>
<stop offset="1" stop-color="#273EE1"/>
</linearGradient>
<linearGradient id="paint37_linear_102_1266" x1="511.44" y1="267.381" x2="520.027" y2="217.533" gradientUnits="userSpaceOnUse">
<stop stop-color="white" stop-opacity="0.6"/>
<stop offset="1" stop-color="#273EE1"/>
</linearGradient>
<linearGradient id="paint38_linear_102_1266" x1="560.795" y1="185.88" x2="577.652" y2="131.788" gradientUnits="userSpaceOnUse">
<stop stop-color="white" stop-opacity="0.6"/>
<stop offset="1" stop-color="#273EE1"/>
</linearGradient>
<linearGradient id="paint39_linear_102_1266" x1="583.387" y1="108.823" x2="607.291" y2="36.2416" gradientUnits="userSpaceOnUse">
<stop stop-color="white" stop-opacity="0.6"/>
<stop offset="1" stop-color="#273EE1"/>
</linearGradient>
<linearGradient id="paint40_linear_102_1266" x1="512.819" y1="95.825" x2="520.825" y2="56.3284" gradientUnits="userSpaceOnUse">
<stop stop-color="white" stop-opacity="0.6"/>
<stop offset="1" stop-color="#273EE1"/>
</linearGradient>
<linearGradient id="paint41_linear_102_1266" x1="208.407" y1="154.65" x2="247.482" y2="81.9716" gradientUnits="userSpaceOnUse">
<stop stop-color="white" stop-opacity="0.6"/>
<stop offset="1" stop-color="#273EE1"/>
</linearGradient>
<linearGradient id="paint42_linear_102_1266" x1="96.3186" y1="80.4439" x2="98.1075" y2="60.1859" gradientUnits="userSpaceOnUse">
<stop stop-color="white" stop-opacity="0.6"/>
<stop offset="1" stop-color="#273EE1"/>
</linearGradient>
<linearGradient id="paint43_linear_102_1266" x1="237.306" y1="79.3324" x2="244.824" y2="45.2091" gradientUnits="userSpaceOnUse">
<stop stop-color="white" stop-opacity="0.6"/>
<stop offset="1" stop-color="#273EE1"/>
</linearGradient>
<linearGradient id="paint44_linear_102_1266" x1="555.011" y1="241.258" x2="567.16" y2="166.64" gradientUnits="userSpaceOnUse">
<stop stop-color="white" stop-opacity="0.6"/>
<stop offset="1" stop-color="#273EE1"/>
</linearGradient>
<linearGradient id="paint45_linear_102_1266" x1="273.747" y1="140.968" x2="310.075" y2="47.9848" gradientUnits="userSpaceOnUse">
<stop stop-color="white" stop-opacity="0.6"/>
<stop offset="1" stop-color="#273EE1"/>
</linearGradient>
<linearGradient id="paint46_linear_102_1266" x1="342.726" y1="58.6406" x2="347.013" y2="53.1157" gradientUnits="userSpaceOnUse">
<stop stop-color="white" stop-opacity="0.6"/>
<stop offset="1" stop-color="#273EE1"/>
</linearGradient>
<linearGradient id="paint47_linear_102_1266" x1="218.201" y1="90.1049" x2="243.577" y2="12.9599" gradientUnits="userSpaceOnUse">
<stop stop-color="white" stop-opacity="0.6"/>
<stop offset="1" stop-color="#273EE1"/>
</linearGradient>
<linearGradient id="paint48_linear_102_1266" x1="241.06" y1="120.122" x2="245.107" y2="98.3029" gradientUnits="userSpaceOnUse">
<stop stop-color="white" stop-opacity="0.6"/>
<stop offset="1" stop-color="#273EE1"/>
</linearGradient>
<linearGradient id="paint49_linear_102_1266" x1="60.5363" y1="55.2365" x2="64.8213" y2="30.4652" gradientUnits="userSpaceOnUse">
<stop stop-color="white" stop-opacity="0.6"/>
<stop offset="1" stop-color="#273EE1"/>
</linearGradient>
<linearGradient id="paint50_linear_102_1266" x1="60.5646" y1="28.0113" x2="65.2649" y2="9.07163" gradientUnits="userSpaceOnUse">
<stop stop-color="white" stop-opacity="0.6"/>
<stop offset="1" stop-color="#273EE1"/>
</linearGradient>
<linearGradient id="paint51_linear_102_1266" x1="305.486" y1="219.006" x2="321.934" y2="148.099" gradientUnits="userSpaceOnUse">
<stop stop-color="white" stop-opacity="0.6"/>
<stop offset="1" stop-color="#273EE1"/>
</linearGradient>
<linearGradient id="paint52_linear_102_1266" x1="799.783" y1="252.488" x2="802.098" y2="191.409" gradientUnits="userSpaceOnUse">
<stop stop-color="white" stop-opacity="0.6"/>
<stop offset="1" stop-color="#273EE1"/>
</linearGradient>
<linearGradient id="paint53_linear_102_1266" x1="143.628" y1="121.553" x2="165.534" y2="91.3223" gradientUnits="userSpaceOnUse">
<stop stop-color="white" stop-opacity="0.6"/>
<stop offset="1" stop-color="#273EE1"/>
</linearGradient>
<linearGradient id="paint54_linear_102_1266" x1="116.563" y1="211.008" x2="172.584" y2="157.299" gradientUnits="userSpaceOnUse">
<stop stop-color="white" stop-opacity="0.6"/>
<stop offset="1" stop-color="#273EE1"/>
</linearGradient>
<linearGradient id="paint55_linear_102_1266" x1="399.917" y1="167.34" x2="415.988" y2="111.267" gradientUnits="userSpaceOnUse">
<stop stop-color="white" stop-opacity="0.6"/>
<stop offset="1" stop-color="#273EE1"/>
</linearGradient>
<linearGradient id="paint56_linear_102_1266" x1="264.02" y1="229.973" x2="268.307" y2="224.448" gradientUnits="userSpaceOnUse">
<stop stop-color="white" stop-opacity="0.6"/>
<stop offset="1" stop-color="#273EE1"/>
</linearGradient>
<linearGradient id="paint57_linear_102_1266" x1="597.531" y1="97.0207" x2="617.248" y2="42.0064" gradientUnits="userSpaceOnUse">
<stop stop-color="white" stop-opacity="0.6"/>
<stop offset="1" stop-color="#273EE1"/>
</linearGradient>
<linearGradient id="paint58_linear_102_1266" x1="412.228" y1="55.8648" x2="422.075" y2="17.4859" gradientUnits="userSpaceOnUse">
<stop stop-color="white" stop-opacity="0.6"/>
<stop offset="1" stop-color="#273EE1"/>
</linearGradient>
<linearGradient id="paint59_linear_102_1266" x1="34.4999" y1="185.977" x2="48.6313" y2="155.008" gradientUnits="userSpaceOnUse">
<stop stop-color="white" stop-opacity="0.6"/>
<stop offset="1" stop-color="#273EE1"/>
</linearGradient>
<linearGradient id="paint60_linear_102_1266" x1="57.1153" y1="226.135" x2="105.16" y2="160.725" gradientUnits="userSpaceOnUse">
<stop stop-color="white" stop-opacity="0.6"/>
<stop offset="1" stop-color="#273EE1"/>
</linearGradient>
<linearGradient id="paint61_linear_102_1266" x1="42.2461" y1="118.718" x2="47.7486" y2="95.7244" gradientUnits="userSpaceOnUse">
<stop stop-color="white" stop-opacity="0.6"/>
<stop offset="1" stop-color="#273EE1"/>
</linearGradient>
<linearGradient id="paint62_linear_102_1266" x1="23.4965" y1="267.884" x2="36.4027" y2="244.523" gradientUnits="userSpaceOnUse">
<stop stop-color="white" stop-opacity="0.6"/>
<stop offset="1" stop-color="#273EE1"/>
</linearGradient>
<linearGradient id="paint63_linear_102_1266" x1="31.2078" y1="250.205" x2="48.6114" y2="218.827" gradientUnits="userSpaceOnUse">
<stop stop-color="white" stop-opacity="0.6"/>
<stop offset="1" stop-color="#273EE1"/>
</linearGradient>
</defs>
</svg>
