<svg xmlns="http://www.w3.org/2000/svg" width="133" height="595" fill="none">
    <mask id="a" width="238" height="595" x="0" y="0" maskUnits="userSpaceOnUse"
        style="mask-type:luminance">
        <path fill="#fff" d="M0 594.544V0h238v594.544H0Z" />
    </mask>
    <g stroke="#9B96B0" stroke-width="1.5" mask="url(#a)">
        <path
            d="M133.72 310.362c0 5.218-8.09 5.226-8.09 0a3.793 3.793 0 0 1 1.021-2.702 3.777 3.777 0 0 1 2.625-1.197V277.05l59.931-54.752V100.862a3.753 3.753 0 0 1-3.33-3.86c0-5.218 8.09-5.227 8.09 0a3.766 3.766 0 0 1-3.413 3.87v122.023l-59.93 54.752v28.898a3.723 3.723 0 0 1 3.1 3.817M182.418 68.647c.93.113 1.783.572 2.392 1.286.609.714.928 1.63.895 2.568 0 5.218-8.09 5.226-8.09 0a3.77 3.77 0 0 1 .955-2.631 3.757 3.757 0 0 1 2.503-1.245v-7.051h-34.549L89.648 9.693c-2.358 1.609-6.498.55-6.498-3.188 0-5.218 8.09-5.226 8.09 0a3.913 3.913 0 0 1-.643 2.232l56.453 51.486h35.368v8.424Z" />
        <path
            d="M153.171 91.693a3.74 3.74 0 0 1-3.2-3.837c0-5.218 8.09-5.226 8.09 0a3.78 3.78 0 0 1-.985 2.664 3.769 3.769 0 0 1-2.559 1.222v88.849l-92.308 83.513v78.423l64.532 58.808.22.205v97.318l23.655 22.085v52.267h-1.348v-51.684l-23.656-22.084v-97.308l-64.528-58.807-.221-.205v-79.618l92.308-83.514V91.693Z" />
        <path
            d="m110.564 520.346-.213-.2V410.582l-27.284-25.29c-2.337 1.717-6.604.684-6.604-3.111 0-5.218 8.09-5.226 8.09 0a3.946 3.946 0 0 1-.57 2.122l27.713 25.692v109.566l26.609 24.99.213.2v28.456h-1.349v-27.87l-26.605-24.991ZM51.622 378.767l29.407 27.496.214.205v48.146a3.745 3.745 0 0 1 2.449 1.266 3.76 3.76 0 0 1 .923 2.6c0 5.218-8.09 5.226-8.09 0-.03-.952.3-1.881.926-2.599a3.752 3.752 0 0 1 2.447-1.266v-47.568l-29.412-27.492-.214-.205v-48.429h.633a3.805 3.805 0 0 1-3.891-3.911c0-5.218 8.09-5.226 8.09 0a3.822 3.822 0 0 1-2.386 3.636c-.478.193-.99.287-1.506.275h.41v47.846ZM48.837 248.822v42.827l-32.635 30.108v28.758a3.739 3.739 0 0 1 2.408 1.281c.614.715.936 1.635.903 2.577 0 5.218-8.09 5.227-8.09 0a3.758 3.758 0 0 1 3.43-3.872v-29.337l32.634-30.108v-42.234h1.35Z" />
        <path
            d="M118.526 90.012a3.758 3.758 0 0 1-2.541-1.227 3.773 3.773 0 0 1-.975-2.653c0-5.218 8.09-5.226 8.09 0a3.75 3.75 0 0 1-.877 2.544 3.734 3.734 0 0 1-2.352 1.299V190.89l-40.52 36.78-.192.175H39.63l-9.74 8.602v26.367a3.753 3.753 0 0 1 3.3 3.858c0 5.218-8.09 5.226-8.09 0a3.759 3.759 0 0 1 3.445-3.874v-26.964l10.583-9.342h39.514l39.883-36.202V90.012Z" />
        <path
            d="M99.04 98.666 52.088 141.42l24.044 22.215v8.721c.888.153 1.69.625 2.258 1.326.568.701.862 1.585.828 2.488 0 5.218-8.09 5.226-8.09 0a3.789 3.789 0 0 1 3.66-3.899v-8.04L50.09 141.413l47.597-43.345V60.423h23.418l11.513 10.91v66.447c.9.142 1.717.61 2.296 1.315.579.705.88 1.598.847 2.51 0 5.218-8.09 5.226-8.09 0a3.786 3.786 0 0 1 3.602-3.894V71.913l-10.706-10.139H99.04v36.892ZM70.077 64.653v14.306c.947.096 1.82.549 2.446 1.267a3.76 3.76 0 0 1 .922 2.599c0 5.218-8.09 5.227-8.09 0a3.765 3.765 0 0 1 .926-2.6 3.75 3.75 0 0 1 2.447-1.266V64.044L88.837 46.19h10.658c.764-4.425 8.024-4.176 8.024.775 0 5.018-7.482 5.216-8.055.576H89.348l-19.27 17.113ZM56.213 52.42l13.893-11.962V1.546h1.349v39.532L57.563 53.04v36.796a3.742 3.742 0 0 1 2.408 1.28c.613.716.936 1.636.903 2.578 0 5.218-8.09 5.227-8.09 0-.031-.962.307-1.9.945-2.62a3.754 3.754 0 0 1 2.484-1.252V52.421ZM24.048 1.797l-10.635 9.566c.536.701.815 1.566.79 2.448 0 5.218-8.09 5.228-8.09 0 0-3.919 4.56-4.9 6.835-2.937l10.65-9.58.45.503Z" />
        <path
            d="m87.643 140.313 19.288 17.598v15.971l-12.658 12.15a3.776 3.776 0 0 1 1.025 2.703c0 5.218-8.09 5.227-8.09 0 0-3.459 3.556-4.627 5.954-3.499l12.421-11.93v-14.798l-19.289-17.601v-13.818l12.815-12.036a3.995 3.995 0 0 1-.512-2.037c0-5.218 8.09-5.226 8.09 0 0 3.835-4.369 4.852-6.687 3.051l-12.357 11.605v12.641ZM128.817 359.981c0 5.218-8.09 5.226-8.09 0a3.96 3.96 0 0 1 .553-2.097l-28.672-25.797v-63.491l47.981-44.021a3.956 3.956 0 0 1-.577-2.138c0-5.218 8.089-5.226 8.089 0 0 3.783-4.252 4.822-6.592 3.123l-47.552 43.631v62.289l28.23 25.404c2.332-1.744 6.629-.718 6.629 3.093M164.749 497.58c0 5.218-8.09 5.227-8.09 0-.01-.676.15-1.344.467-1.941l-8.891-8.099v-81.093l-31.333-28.567c-2.369 1.54-6.426.467-6.426-3.234 0-5.218 8.089-5.226 8.089 0a3.879 3.879 0 0 1-.689 2.299l31.486 28.704.22.205v81.094l8.402 7.652c2.296-1.894 6.765-.905 6.765 2.98ZM44.172 244.882c0-5.218 8.09-5.226 8.09 0s-8.09 5.227-8.09 0ZM70.005 198.339c0 5.218-8.09 5.227-8.09 0a3.947 3.947 0 0 1 .571-2.123L40.6 176.832v-78.33a3.743 3.743 0 0 1-2.411-1.28 3.756 3.756 0 0 1-.904-2.58c0-5.218 8.09-5.226 8.09 0 .031.962-.306 1.9-.943 2.62a3.754 3.754 0 0 1-2.483 1.253v77.708l21.455 19.004c2.338-1.715 6.603-.683 6.603 3.112" />
        <path
            d="M8.09 41.588a3.844 3.844 0 0 1-.797 2.444L27.95 62.695l.222.206v132.852l17.5 15.843h24.475c.63-4.573 8.047-4.371 8.047.633 0 4.965-7.324 5.21-8.034.718H45.15l-18.33-16.594V63.499L6.26 44.925C3.873 46.312 0 45.204 0 41.588c0-5.218 8.09-5.226 8.09 0ZM199.598 28.561c0 4.956-7.292 5.21-8.029.748h-44.186L117.912 2.042l.916-.993 29.082 26.908h43.637c.602-4.604 8.051-4.41 8.051.604ZM29.617 375.078a3.989 3.989 0 0 1-.512 2.026l35.059 31.71v46.989l30.942 28.009v54.017a3.718 3.718 0 0 1 3.056 3.807c0 5.218-8.09 5.226-8.09 0a3.802 3.802 0 0 1 2.245-3.571 3.8 3.8 0 0 1 1.442-.328v-53.328L62.817 456.4v-46.989l-34.598-31.29c-2.315 1.809-6.692.802-6.692-3.043 0-5.218 8.09-5.227 8.09 0Z" />
        <path
            d="M36.39 413.956a3.723 3.723 0 0 1-2.938 3.779v33.723l48.565 44.171v25.636a3.714 3.714 0 0 1 2.238 1.331 3.73 3.73 0 0 1 .819 2.476c0 5.218-8.09 5.227-8.09 0a3.802 3.802 0 0 1 2.244-3.571 3.781 3.781 0 0 1 1.442-.328v-24.947l-48.567-44.17v-34.193a3.778 3.778 0 0 1-2.726-1.147 3.806 3.806 0 0 1-1.076-2.76c0-5.218 8.09-5.226 8.09 0Z" />
    </g>
</svg>