<svg width="171" height="534" viewBox="0 0 171 534" fill="none" xmlns="http://www.w3.org/2000/svg">
<path fill-rule="evenodd" clip-rule="evenodd" d="M97.6062 0.544523L97.6884 0.46201L97.5894 0.561123L97.6062 0.544523ZM85.0051 13.1937L97.6062 0.544523C98.2672 -0.100124 99.2794 -0.0945601 99.9344 0.561214C100.265 0.858837 100.43 1.3218 100.43 1.71863C100.43 2.11546 100.265 2.54536 99.9344 2.87605L87.2511 15.6077L161.369 89.716C163.846 92.1962 165.233 95.5031 165.233 99.0415C165.233 102.58 163.846 105.887 161.369 108.367L142.575 127.217C140.098 129.697 136.795 131.086 133.261 131.086C129.76 131.086 126.424 129.697 123.947 127.217L101.751 105.027C96.6314 99.8682 96.5984 91.5017 101.751 86.3429C104.228 83.8627 107.531 82.4738 111.065 82.4738C114.566 82.4738 117.902 83.8627 120.38 86.3429L131.444 97.388C132.072 98.0494 132.072 99.0746 131.444 99.736C130.784 100.397 129.76 100.397 129.099 99.736L118.034 88.6908C116.152 86.8059 113.675 85.7807 111.032 85.7807C108.39 85.7807 105.88 86.8059 104.03 88.6908C100.166 92.5599 100.166 98.81 104.03 102.679L126.226 124.869C128.108 126.754 130.586 127.779 133.228 127.779C135.87 127.779 138.381 126.754 140.23 124.869L159.024 106.019C160.907 104.167 161.93 101.687 161.93 99.0415C161.93 96.396 160.907 93.8827 159.024 92.0308L84.906 17.9226L10.8873 92.13C7.02287 95.9661 7.02287 102.249 10.8873 106.118L29.714 124.935C31.5967 126.82 34.0739 127.845 36.7162 127.845C39.3586 127.845 41.8688 126.82 43.7185 124.935L65.8811 102.712C69.7456 98.8431 69.7456 92.593 65.8811 88.7239C62.0167 84.8548 55.7742 84.8548 51.9097 88.7239L40.8779 99.8021C40.2174 100.463 39.1934 100.463 38.5329 99.8021C37.9053 99.1407 37.9053 98.1156 38.5329 97.4542L49.5647 86.376C54.7172 81.2502 63.0736 81.2172 68.2262 86.376C70.7034 88.8562 72.0907 92.1631 72.0907 95.7015C72.0907 99.2399 70.7034 102.547 68.2262 105.027L46.0635 127.25C43.5863 129.73 40.2504 131.119 36.7493 131.119C33.2482 131.119 29.9122 129.73 27.435 127.25L8.60828 108.433C3.48874 103.274 3.45571 94.9079 8.60828 89.749L82.66 15.5416L69.9437 2.84298C69.3162 2.18159 69.3162 1.15645 69.9437 0.495063C70.6043 -0.166323 71.6282 -0.166323 72.2888 0.495063L85.0051 13.1937ZM24.6936 44.0804C27.2699 41.501 28.558 38.128 28.558 34.7549C28.558 31.3818 27.2699 27.9757 24.6936 25.3963L23.6036 24.305C18.451 19.1462 10.0946 19.1793 4.94202 24.305L3.85206 25.3963C-1.30052 30.5551 -1.26749 38.9216 3.85206 44.0804L4.94202 45.1717C7.41922 47.6519 10.7552 49.0408 14.2563 49.0408C17.7904 49.0408 21.0934 47.6519 23.5706 45.1717L24.6605 44.0804H24.6936ZM7.28711 42.8569L6.19714 41.7656C4.28144 39.8476 3.29056 37.3012 3.29056 34.7549C3.29056 32.2086 4.24841 29.6953 6.16411 27.7773L7.25408 26.686C11.1185 22.8169 17.3611 22.8169 21.2255 26.686L22.3155 27.7773C26.1799 31.6464 26.1799 37.8965 22.3155 41.7656L21.2255 42.8569C19.3758 44.7418 16.8656 45.767 14.2233 45.767C11.5809 45.767 9.10372 44.7418 7.22105 42.8569H7.28711ZM28.558 233.6C28.558 237.106 27.1708 240.446 24.6936 242.926L24.7266 242.959L23.6366 244.05C18.4841 249.176 10.1276 249.209 4.97506 244.05L3.88509 242.959C-1.23445 237.8 -1.26748 229.434 3.88509 224.275L4.97506 223.184C7.45226 220.703 10.7552 219.314 14.2893 219.314C17.7904 219.314 21.1264 220.703 23.6036 223.184L24.6936 224.275C27.1708 226.755 28.558 230.062 28.558 233.6ZM6.19715 240.611L7.28711 241.702H7.32014C11.1846 245.571 17.4271 245.571 21.2915 241.702L22.3815 240.611C24.2312 238.759 25.2551 236.279 25.2551 233.633C25.2551 230.988 24.2312 228.475 22.3485 226.623L21.2585 225.532C19.3758 223.647 16.8986 222.621 14.2563 222.621C11.614 222.621 9.10373 223.647 7.25408 225.532L6.16412 226.623C4.24842 228.541 3.29057 231.054 3.29057 233.6C3.29057 236.147 4.28145 238.693 6.19715 240.611ZM146.01 242.959C140.891 237.8 140.858 229.434 146.01 224.275L146.043 224.308L147.133 223.217C149.61 220.736 152.946 219.348 156.448 219.348C159.949 219.348 163.285 220.736 165.762 223.217L166.852 224.308C169.329 226.788 170.716 230.095 170.716 233.633C170.716 237.139 169.329 240.479 166.852 242.959L165.762 244.05C160.609 249.176 152.253 249.209 147.1 244.05L146.01 242.959ZM164.507 226.59L163.417 225.498H163.45C161.567 223.613 159.09 222.588 156.448 222.588C153.805 222.588 151.295 223.613 149.445 225.498L148.355 226.59C146.44 228.508 145.482 231.021 145.482 233.567C145.482 236.114 146.473 238.66 148.388 240.578L149.478 241.669C153.343 245.538 159.585 245.538 163.45 241.669L164.54 240.578C166.389 238.726 167.413 236.246 167.413 233.6C167.413 230.955 166.389 228.442 164.507 226.59ZM146.01 44.1135C140.891 38.9547 140.858 30.5882 146.01 25.4293H145.977L147.067 24.3381C152.22 19.2123 160.576 19.1792 165.729 24.3381L166.819 25.4293C169.395 28.0087 170.683 31.4149 170.683 34.788C170.683 38.161 169.395 41.5341 166.819 44.1135L165.729 45.2048C163.252 47.685 159.916 49.0739 156.415 49.0739C152.913 49.0739 149.577 47.685 147.1 45.2048L146.01 44.1135ZM164.507 27.7442L163.417 26.6529H163.351C159.486 22.7838 153.244 22.7838 149.379 26.6529L148.289 27.7442C146.374 29.6622 145.416 32.1755 145.416 34.7218C145.416 37.2681 146.407 39.8145 148.322 41.7325L149.412 42.8238C151.295 44.7087 153.772 45.7339 156.415 45.7339C159.057 45.7339 161.567 44.7087 163.417 42.8238L164.507 41.7325C168.371 37.8634 168.371 31.6133 164.507 27.7442ZM101.883 163.361C99.4059 165.841 98.0187 169.181 98.0187 172.687C98.0187 176.225 99.4059 179.532 101.883 182.012C104.36 184.493 107.696 185.881 111.197 185.881C114.698 185.881 118.034 184.493 120.512 182.012L131.543 170.934C132.171 170.273 132.171 169.248 131.543 168.586C130.883 167.925 129.859 167.925 129.198 168.586L118.167 179.664C116.317 181.549 113.807 182.575 111.164 182.575C108.522 182.575 106.045 181.549 104.162 179.664C102.279 177.813 101.256 175.299 101.256 172.654C101.256 170.008 102.279 167.528 104.162 165.676L126.325 143.454C130.189 139.584 136.432 139.584 140.296 143.454L159.123 162.27C161.006 164.122 162.03 166.635 162.03 169.281C162.03 171.926 161.006 174.406 159.123 176.258L85.1373 250.499L11.0194 176.391C9.13675 174.539 8.11285 172.025 8.11285 169.38C8.11285 166.734 9.13675 164.254 11.0194 162.402L29.8131 143.553C31.6628 141.668 34.173 140.643 36.8153 140.643C39.4577 140.643 41.9349 141.668 43.8176 143.553L66.0133 165.742C67.8959 167.594 68.9199 170.107 68.9199 172.753C68.9199 175.398 67.8959 177.879 66.0463 179.731C64.1967 181.616 61.6864 182.641 59.0441 182.641C56.4017 182.641 53.9245 181.616 52.0419 179.731L40.977 168.685C40.3164 168.024 39.2925 168.024 38.6319 168.685C38.0044 169.347 37.9714 170.372 38.6319 171.033L49.6968 182.078C52.174 184.559 55.5099 185.948 59.0111 185.948C62.5122 185.948 65.8481 184.559 68.3253 182.078C70.8025 179.598 72.1898 176.258 72.1898 172.753C72.1898 169.215 70.8025 165.908 68.3253 163.427L46.1296 141.238C43.6524 138.758 40.3164 137.369 36.8153 137.369C33.3142 137.369 29.9783 138.758 27.5011 141.238L8.70737 160.087C6.23017 162.568 4.84294 165.908 4.84294 169.413C4.84294 172.951 6.23017 176.258 8.70737 178.738L82.8252 252.847L70.1419 265.578C69.9221 265.81 69.7793 266.086 69.7135 266.376C69.3289 267.019 69.4057 267.854 69.9437 268.421L82.66 281.119L8.60828 355.327C3.45571 360.486 3.48874 368.852 8.60828 374.011L27.435 392.827C29.9122 395.308 33.2482 396.696 36.7493 396.696C40.2504 396.696 43.5863 395.308 46.0635 392.827L68.2262 370.605C70.7034 368.125 72.0907 364.818 72.0907 361.279C72.0907 357.741 70.7034 354.434 68.2262 351.954C63.0736 346.795 54.7172 346.828 49.5647 351.954L38.5329 363.032C37.9053 363.693 37.9053 364.718 38.5329 365.38C39.1934 366.041 40.2174 366.041 40.8779 365.38L51.9097 354.302C55.7742 350.433 62.0167 350.433 65.8811 354.302C69.7456 358.171 69.7456 364.421 65.8811 368.29L43.7185 390.513C41.8688 392.397 39.3586 393.423 36.7162 393.423C34.0739 393.423 31.5967 392.397 29.714 390.513L10.8873 371.696C7.02287 367.827 7.02287 361.544 10.8873 357.708L84.906 283.5L159.024 357.609C160.907 359.46 161.93 361.974 161.93 364.619C161.93 367.265 160.907 369.745 159.024 371.597L140.23 390.446C138.381 392.331 135.87 393.356 133.228 393.356C130.586 393.356 128.108 392.331 126.226 390.446L104.03 368.257C100.166 364.388 100.166 358.138 104.03 354.269C105.88 352.384 108.39 351.358 111.032 351.358C113.675 351.358 116.152 352.384 118.034 354.269L129.099 365.314C129.76 365.975 130.784 365.975 131.444 365.314C132.072 364.652 132.072 363.627 131.444 362.966L120.38 351.921C117.902 349.44 114.566 348.052 111.065 348.052C107.531 348.052 104.228 349.44 101.751 351.921C96.5984 357.079 96.6314 365.446 101.751 370.605L123.947 392.794C126.424 395.274 129.76 396.663 133.261 396.663C136.795 396.663 140.098 395.274 142.575 392.794L161.369 373.945C163.846 371.465 165.233 368.158 165.233 364.619C165.233 361.081 163.846 357.774 161.369 355.294L87.2511 281.185L99.9344 268.454C100.16 268.228 100.308 267.956 100.38 267.68C100.589 267.389 100.694 267.052 100.694 266.736C100.694 266.339 100.529 265.876 100.199 265.578L87.4823 252.88L161.501 178.672C163.978 176.192 165.365 172.852 165.365 169.347C165.365 165.808 163.978 162.501 161.501 160.021L142.674 141.205C137.522 136.046 129.165 136.079 124.013 141.205L101.85 163.427L101.883 163.361ZM85.0051 278.771L73.3138 267.096L85.1703 255.195L96.8464 266.885L85.0051 278.771ZM94.3855 123.744L94.3827 123.742L94.376 123.735C89.2226 118.585 80.8733 118.622 75.7239 123.744L74.6339 124.836C72.1567 127.316 70.7695 130.656 70.7695 134.161C70.7695 137.7 72.1567 141.006 74.6339 143.487L75.7239 144.578C78.2011 147.058 81.537 148.447 85.0382 148.447C88.5393 148.447 91.8752 147.058 94.3524 144.578L95.4424 143.487C98.0187 140.907 99.3068 137.534 99.3068 134.161C99.3068 130.788 98.0187 127.382 95.4424 124.802L94.3855 123.744ZM93.1303 127.183C96.9948 131.053 96.9948 137.303 93.1303 141.172L92.0404 142.263C90.1907 144.148 87.6805 145.173 85.0382 145.173C82.3958 145.173 79.9186 144.148 78.0359 142.263L76.946 141.172C75.0633 139.32 74.0394 136.807 74.0394 134.161C74.0394 131.516 75.0633 129.035 76.9129 127.183L78.0029 126.092C81.8673 122.223 88.1099 122.223 91.9743 126.092L93.0643 127.183H93.1303ZM28.558 499.178C28.558 502.684 27.1708 506.023 24.6936 508.504L24.7266 508.537L23.6366 509.628C18.4841 514.754 10.1276 514.787 4.97506 509.628L3.88509 508.537C-1.23445 503.378 -1.26748 495.011 3.88509 489.853L4.97506 488.761C7.45226 486.281 10.7552 484.892 14.2893 484.892C17.7904 484.892 21.1264 486.281 23.6036 488.761L24.6936 489.853C27.1708 492.333 28.558 495.64 28.558 499.178ZM6.19715 506.189L7.28711 507.28H7.32014C11.1846 511.149 17.4271 511.149 21.2915 507.28L22.3815 506.189C24.2312 504.337 25.2551 501.857 25.2551 499.211C25.2551 496.566 24.2312 494.052 22.3485 492.201L21.2585 491.109C19.3758 489.224 16.8986 488.199 14.2563 488.199C11.614 488.199 9.10373 489.224 7.25408 491.109L6.16412 492.201C4.24842 494.119 3.29057 496.632 3.29057 499.178C3.29057 501.724 4.28145 504.271 6.19715 506.189ZM146.01 489.853C140.858 495.011 140.891 503.378 146.01 508.537L147.1 509.628C152.253 514.787 160.609 514.754 165.762 509.628L166.852 508.537C169.329 506.057 170.716 502.717 170.716 499.211C170.716 495.673 169.329 492.366 166.852 489.886L165.762 488.794C163.285 486.314 159.949 484.925 156.448 484.925C152.946 484.925 149.61 486.314 147.133 488.794L146.043 489.886L146.01 489.853ZM163.417 491.076L164.507 492.167C166.389 494.019 167.413 496.533 167.413 499.178C167.413 501.824 166.389 504.304 164.54 506.156L163.45 507.247C159.585 511.116 153.343 511.116 149.478 507.247L148.388 506.156C146.473 504.238 145.482 501.691 145.482 499.145C145.482 496.599 146.44 494.085 148.355 492.167L149.445 491.076C151.295 489.191 153.805 488.166 156.448 488.166C159.09 488.166 161.567 489.191 163.45 491.076H163.417ZM28.558 300.333C28.558 303.706 27.2699 307.079 24.6936 309.658H24.6605L23.5706 310.749C21.0934 313.23 17.7904 314.619 14.2563 314.619C10.7552 314.619 7.41922 313.23 4.94202 310.749L3.85206 309.658C-1.26749 304.499 -1.30052 296.133 3.85206 290.974L4.94202 289.883C10.0946 284.757 18.451 284.724 23.6036 289.883L24.6936 290.974C27.2699 293.553 28.558 296.96 28.558 300.333ZM6.19714 307.343L7.28711 308.435H7.22105C9.10372 310.32 11.5809 311.345 14.2233 311.345C16.8656 311.345 19.3758 310.32 21.2255 308.435L22.3155 307.343C26.1799 303.474 26.1799 297.224 22.3155 293.355L21.2255 292.264C17.3611 288.395 11.1185 288.395 7.25408 292.264L6.16411 293.355C4.24841 295.273 3.29056 297.786 3.29056 300.333C3.29056 302.879 4.28144 305.425 6.19714 307.343ZM146.01 291.007C140.858 296.166 140.891 304.532 146.01 309.691L147.1 310.783C149.577 313.263 152.913 314.652 156.415 314.652C159.916 314.652 163.252 313.263 165.729 310.783L166.819 309.691C169.395 307.112 170.683 303.739 170.683 300.366C170.683 296.993 169.395 293.587 166.819 291.007L165.729 289.916C160.576 284.757 152.22 284.79 147.067 289.916L145.977 291.007H146.01ZM163.417 292.231L164.507 293.322C168.371 297.191 168.371 303.441 164.507 307.31L163.417 308.402C161.567 310.286 159.057 311.312 156.415 311.312C153.772 311.312 151.295 310.286 149.412 308.402L148.322 307.31C146.407 305.392 145.416 302.846 145.416 300.3C145.416 297.753 146.374 295.24 148.289 293.322L149.379 292.231C153.244 288.362 159.486 288.362 163.351 292.231H163.417ZM98.0187 438.265C98.0187 434.759 99.4059 431.419 101.883 428.939L101.85 429.005L124.013 406.783C129.165 401.657 137.522 401.624 142.674 406.783L161.501 425.599C163.978 428.079 165.365 431.386 165.365 434.925C165.365 438.43 163.978 441.77 161.501 444.25L87.4823 518.458L100.199 531.156C100.529 531.454 100.694 531.917 100.694 532.314C100.694 532.71 100.529 533.14 100.199 533.471C99.538 534.132 98.5141 534.132 97.8535 533.471L85.1703 520.772L72.487 533.504C71.8264 534.165 70.8025 534.165 70.1419 533.504C69.5144 532.843 69.5144 531.818 70.1419 531.156L82.8252 518.424L8.70737 444.316C6.23017 441.836 4.84294 438.529 4.84294 434.991C4.84294 431.485 6.23017 428.145 8.70737 425.665L27.5011 406.816C29.9783 404.336 33.3142 402.947 36.8153 402.947C40.3164 402.947 43.6524 404.336 46.1296 406.816L68.3253 429.005C70.8025 431.485 72.1898 434.792 72.1898 438.331C72.1898 441.836 70.8025 445.176 68.3253 447.656C65.8481 450.136 62.5122 451.525 59.0111 451.525C55.5099 451.525 52.174 450.136 49.6968 447.656L38.6319 436.611C37.9714 435.95 38.0044 434.925 38.6319 434.263C39.2925 433.602 40.3164 433.602 40.977 434.263L52.0419 445.308C53.9245 447.193 56.4017 448.218 59.0441 448.218C61.6864 448.218 64.1967 447.193 66.0463 445.308C67.8959 443.456 68.9199 440.976 68.9199 438.331C68.9199 435.685 67.8959 433.172 66.0133 431.32L43.8176 409.131C41.9349 407.246 39.4577 406.22 36.8153 406.22C34.173 406.22 31.6628 407.246 29.8131 409.131L11.0194 427.98C9.13675 429.832 8.11285 432.312 8.11285 434.958C8.11285 437.603 9.13675 440.116 11.0194 441.968L85.1373 516.077L159.123 441.836C161.006 439.984 162.03 437.504 162.03 434.858C162.03 432.213 161.006 429.7 159.123 427.848L140.296 409.031C136.432 405.162 130.189 405.162 126.325 409.031L104.162 431.254C102.279 433.106 101.256 435.586 101.256 438.232C101.256 440.877 102.279 443.39 104.162 445.242C106.045 447.127 108.522 448.152 111.164 448.152C113.807 448.152 116.317 447.127 118.167 445.242L129.198 434.164C129.859 433.503 130.883 433.503 131.543 434.164C132.171 434.825 132.171 435.851 131.543 436.512L120.512 447.59C118.034 450.07 114.698 451.459 111.197 451.459C107.696 451.459 104.36 450.07 101.883 447.59C99.4059 445.11 98.0187 441.803 98.0187 438.265ZM94.3805 389.317C94.3822 389.319 94.3838 389.32 94.3855 389.322L95.4424 390.38C98.0187 392.96 99.3068 396.366 99.3068 399.739C99.3068 403.112 98.0187 406.485 95.4424 409.064L94.3524 410.156C91.8752 412.636 88.5393 414.025 85.0382 414.025C81.537 414.025 78.2011 412.636 75.7239 410.156L74.6339 409.064C72.1567 406.584 70.7695 403.277 70.7695 399.739C70.7695 396.234 72.1567 392.894 74.6339 390.413L75.7239 389.322C80.8722 384.201 89.2192 384.163 94.3728 389.309C94.3754 389.312 94.3779 389.315 94.3805 389.317ZM93.1303 406.75C96.9948 402.88 96.9948 396.63 93.1303 392.761H93.0643L91.9743 391.67C88.1099 387.801 81.8673 387.801 78.0029 391.67L76.9129 392.761C75.0633 394.613 74.0394 397.093 74.0394 399.739C74.0394 402.384 75.0633 404.898 76.946 406.75L78.0359 407.841C79.9186 409.726 82.3958 410.751 85.0382 410.751C87.6805 410.751 90.1907 409.726 92.0404 407.841L93.1303 406.75Z" stroke="white" stroke-width="4" fill="white"/>
</svg>
