<svg width="24" height="36" viewBox="0 0 24 36" fill="none" xmlns="http://www.w3.org/2000/svg">
<path d="M11.0084 0H10.0549V11.4052C7.8774 11.5713 5.80668 12.3133 4.04193 13.5075C3.97077 13.5499 3.90317 13.5994 3.83557 13.6453C3.36592 13.9774 2.91406 14.3413 2.49778 14.7406C2.49067 14.7441 2.49067 14.7477 2.48711 14.7477C2.2594 14.9597 2.03525 15.1823 1.82889 15.4154C1.23827 16.0514 0.722368 16.7616 0.274066 17.5248L0.00366211 17.9947L0.274066 18.4682C1.0497 19.8108 2.06727 20.9732 3.25563 21.9166C3.31611 21.9625 3.3766 22.012 3.44064 22.0579C4.0277 22.5066 4.6539 22.9023 5.30856 23.2415C5.48646 23.3334 5.66436 23.4182 5.84581 23.503C7.16225 24.1036 8.58543 24.4817 10.0584 24.5912V35.9929H11.012C17.8503 35.9929 23.415 30.467 23.415 23.6797C23.415 21.6904 22.9275 19.733 22.0131 17.9912C22.9311 16.2493 23.415 14.299 23.415 12.3062C23.4114 5.52596 17.8468 0 11.0084 0ZM8.31859 13.617C8.38975 13.6347 8.46446 13.617 8.53206 13.564C8.68861 13.5252 8.84516 13.4898 9.00527 13.458C9.12624 13.4651 9.24365 13.4969 9.31125 13.5534C9.43222 13.6488 9.56387 13.6418 9.66705 13.5358C9.71686 13.4863 9.73821 13.4156 9.73821 13.345C9.98371 13.3132 10.2328 13.2884 10.4818 13.2778C10.4747 13.2955 10.4676 13.3167 10.4676 13.3379C10.4676 13.4404 10.4213 13.504 10.3573 13.5676C9.94101 13.9845 9.52473 14.4049 9.10845 14.8254C8.96969 14.9632 8.86651 14.9632 8.72775 14.8254C8.38975 14.4827 8.04818 14.14 7.71018 13.8008C7.90942 13.7336 8.10867 13.6771 8.31147 13.6206L8.31859 13.617ZM11.1827 22.7327C11.1258 22.7363 11.0689 22.7363 11.0084 22.7363C10.6633 22.7363 10.3146 22.7222 9.97303 22.6833C10.2256 22.4289 10.4747 22.178 10.7273 21.9236C10.7878 21.8636 10.8412 21.8176 10.9408 21.8212C11.076 21.8212 11.1756 21.701 11.1756 21.5703C11.1756 21.5385 11.1685 21.5103 11.1578 21.482C11.044 21.4926 10.9266 21.4997 10.8056 21.4997C10.7593 21.4997 10.7131 21.4961 10.6668 21.4926C10.6633 21.5103 10.6526 21.5244 10.6526 21.5456C10.649 21.6269 10.6384 21.694 10.5779 21.754C10.279 22.0544 9.98015 22.3547 9.68128 22.655C9.19028 22.5914 8.71352 22.4925 8.24387 22.3653C8.04818 22.1674 7.84894 21.9696 7.65325 21.7717C7.59632 21.7116 7.5643 21.6551 7.5643 21.5668C7.5643 21.4078 7.45045 21.3053 7.29746 21.3089C7.16937 21.3089 7.05196 21.4184 7.04128 21.5491C7.02705 21.6834 7.12667 21.8141 7.27611 21.8212C7.37217 21.8247 7.4291 21.8706 7.48958 21.9307C7.58921 22.0296 7.68883 22.1286 7.78489 22.231C6.49336 21.8141 5.30145 21.1534 4.26253 20.2878C4.62544 19.9203 4.99191 19.5529 5.35482 19.1854C5.41886 19.1218 5.4829 19.0759 5.58252 19.0759C5.7284 19.0759 5.81023 18.9628 5.81379 18.8179C5.81379 18.6766 5.72128 18.5741 5.57897 18.5635C5.44021 18.5494 5.32279 18.6342 5.31212 18.7791C5.305 18.8886 5.26943 18.9628 5.19115 19.037C4.82112 19.4045 4.45821 19.7754 4.09174 20.1429C3.67191 19.779 3.28053 19.3762 2.92118 18.9451C3.18091 18.9451 3.43708 18.9451 3.69681 18.9451C3.81067 18.9451 3.92808 18.9204 4.00991 19.0441C4.03126 19.0759 4.09886 19.0759 4.12377 19.0829C4.28387 19.0829 4.36926 19.0158 4.4084 18.8886C4.44398 18.772 4.39773 18.6731 4.30878 18.6095C4.2056 18.5388 4.08107 18.5353 3.98856 18.6307C3.91741 18.7049 3.84269 18.7155 3.75018 18.7155C3.41218 18.7155 3.07773 18.7155 2.73972 18.7155C2.55471 18.4858 2.38393 18.2491 2.22382 18.0018C2.41239 17.7191 2.60808 17.4471 2.818 17.1856C3.00301 17.3729 3.18803 17.5601 3.3766 17.7474C3.42997 17.8004 3.46555 17.8498 3.46555 17.9346C3.47266 18.0866 3.58652 18.1855 3.72528 18.182C3.86759 18.1749 3.97789 18.0618 3.97789 17.9205C3.97789 17.7756 3.88183 17.659 3.72883 17.6626C3.62565 17.6661 3.56517 17.6202 3.50113 17.553C3.31967 17.3693 3.14177 17.1891 2.96032 17.0089C3.156 16.7757 3.36237 16.5496 3.5794 16.3376C3.61142 16.3518 3.64344 16.3588 3.68258 16.3588C3.76086 16.3588 3.81778 16.3871 3.87115 16.4436C4.30166 16.8782 4.73218 17.3128 5.16624 17.7474C5.20894 17.7933 5.2374 17.8357 5.24096 17.9064C5.24096 18.0654 5.34058 18.1749 5.47223 18.182C5.62166 18.1926 5.73552 18.0901 5.75331 17.9134C5.76042 17.8392 5.78889 17.7898 5.8387 17.7403C6.27277 17.3057 6.70328 16.8711 7.13379 16.433C7.17649 16.3906 7.21918 16.3553 7.29034 16.3553C7.46468 16.3553 7.56074 16.2493 7.56074 16.0868C7.56074 15.9454 7.44689 15.8288 7.30813 15.8288C7.17293 15.8288 7.0484 15.9454 7.04484 16.1009C7.04484 16.1751 7.02349 16.2281 6.97012 16.2776C6.53605 16.7121 6.10554 17.1467 5.67503 17.5848C5.62166 17.6378 5.56829 17.6838 5.47934 17.6555C5.39395 17.6979 5.35482 17.6272 5.305 17.5742C4.88517 17.1503 4.46889 16.7263 4.04549 16.3058C3.98501 16.2458 3.94231 16.1892 3.94943 16.0903C3.94943 16.055 3.94587 16.0232 3.93519 15.9914C4.21627 15.737 4.51514 15.4967 4.82468 15.2741C4.90651 15.2741 4.98835 15.2741 5.07018 15.2741C5.20182 15.2741 5.33703 15.2459 5.43309 15.3801C5.46155 15.419 5.52204 15.419 5.57185 15.419C5.71061 15.419 5.78533 15.3342 5.82091 15.2141C5.85649 15.0939 5.796 15.0021 5.70705 14.942C5.60743 14.8749 5.48646 14.8713 5.40107 14.9667C5.34414 15.0303 5.29077 15.0445 5.2125 15.0445C5.19471 15.0445 5.17336 15.0445 5.15557 15.0445C5.51137 14.8077 5.87783 14.5922 6.25498 14.3979C6.45422 14.5957 6.64991 14.7971 6.84915 14.995C6.90608 15.0515 6.94166 15.1081 6.94522 15.1964C6.95233 15.3377 7.08398 15.4402 7.22274 15.4296C7.35082 15.419 7.46112 15.3024 7.46112 15.1717C7.46112 15.0303 7.3615 14.9067 7.21562 14.9102C7.11956 14.9102 7.06263 14.8749 7.00215 14.8113C6.83136 14.6381 6.65702 14.465 6.48624 14.2883C6.81002 14.1294 7.14446 13.9916 7.48603 13.8679C7.85961 14.246 8.22964 14.6205 8.60322 14.995C8.60322 14.995 8.60678 15.0021 8.61034 15.0056H9.26144C9.26144 15.0056 9.26856 14.995 9.27212 14.9915C9.70619 14.5569 10.1367 14.1223 10.5672 13.6877C10.617 13.6382 10.6633 13.6064 10.738 13.61C10.8945 13.61 10.9906 13.511 10.9942 13.3662C10.9942 13.3308 10.9906 13.2955 10.9799 13.2637H11.0155C11.3784 13.2637 11.7378 13.2849 12.09 13.3202C12.0793 13.4192 12.0331 13.4863 11.969 13.5534C11.599 13.9244 11.229 14.2954 10.8625 14.6699C10.9693 14.6699 11.0689 14.677 11.1685 14.6841C11.4994 14.3519 11.8267 14.0198 12.1576 13.6912C12.275 13.5711 12.4138 13.5746 12.5348 13.6948C12.9546 14.1188 13.3744 14.5427 13.7978 14.9667C13.8548 15.0268 13.8868 15.0833 13.8868 15.1717C13.8868 15.3307 14.0006 15.4331 14.1536 15.4296C14.2817 15.4296 14.3991 15.3201 14.4098 15.1893C14.424 15.0551 14.3244 14.9243 14.175 14.9173C14.0789 14.9102 14.022 14.8678 13.9615 14.8077C13.5417 14.3837 13.1218 13.9598 12.702 13.5393C12.6593 13.4969 12.6308 13.4474 12.613 13.3944C13.2855 13.4969 13.9401 13.663 14.5663 13.8891C14.9043 14.2318 15.2459 14.5745 15.5839 14.9173C15.6658 14.9985 15.744 15.0692 15.7405 15.2141C15.7334 15.3519 15.8828 15.4543 16.018 15.4437C16.1532 15.4296 16.2493 15.3236 16.2528 15.1858C16.2528 15.0445 16.1674 14.9314 16.0251 14.9279C15.929 14.9279 15.8721 14.8855 15.8116 14.8254C15.5697 14.5816 15.3313 14.3378 15.0894 14.0976C16.8683 14.8431 18.4232 16.0691 19.5617 17.6555C19.4977 17.652 19.4301 17.6732 19.3731 17.7262C19.302 17.7933 19.2344 17.8004 19.149 17.8004C18.6829 17.8004 18.2168 17.8004 17.7507 17.8004C17.6369 17.8004 17.5194 17.8251 17.4376 17.7014C17.4163 17.6696 17.3487 17.6696 17.3238 17.6626C17.1636 17.6626 17.0783 17.7297 17.0391 17.8569C17.0035 17.9735 17.0498 18.0724 17.1387 18.136C17.2419 18.2067 17.3664 18.2102 17.459 18.1148C17.5301 18.0406 17.6048 18.03 17.6973 18.03C18.1812 18.03 18.6615 18.03 19.1454 18.03C19.2308 18.03 19.302 18.0406 19.3696 18.1078C19.4763 18.2102 19.6329 18.1996 19.7289 18.1007C19.7609 18.0689 19.7752 18.03 19.7894 17.9876C19.7894 17.9876 19.7894 17.9876 19.7894 17.9912C19.793 17.9947 19.7965 18.0018 19.8001 18.0053C19.4514 18.5388 19.0565 19.0335 18.6224 19.4857C18.4374 19.2985 18.2559 19.1147 18.0709 18.9275C18.0176 18.8745 17.982 18.825 17.982 18.7402C17.9749 18.5883 17.861 18.4894 17.7222 18.4929C17.5799 18.5 17.4696 18.613 17.4696 18.7543C17.4696 18.8992 17.5657 19.0158 17.7187 19.0123C17.8219 19.0087 17.8824 19.0547 17.9464 19.1218C18.1207 19.2985 18.2951 19.4751 18.4694 19.6482C18.4587 19.6588 18.4481 19.673 18.4338 19.6836C18.1955 19.9238 17.9393 20.15 17.6795 20.362C17.644 20.3478 17.6084 20.3302 17.5764 20.2984C17.1459 19.8638 16.7153 19.4292 16.2813 18.9946C16.2386 18.9487 16.2101 18.9063 16.2066 18.8356C16.2066 18.6766 16.1069 18.5671 15.9753 18.56C15.8259 18.5494 15.712 18.6519 15.6942 18.8285C15.6871 18.9027 15.6586 18.9522 15.6088 19.0017C15.1748 19.4363 14.7442 19.8708 14.3137 20.309C14.271 20.3514 14.2283 20.3867 14.1572 20.3867C13.9828 20.3867 13.8868 20.4927 13.8868 20.6552C13.8868 20.7965 14.0006 20.9131 14.1394 20.9131C14.2746 20.9131 14.3991 20.7965 14.4027 20.6411C14.4027 20.5669 14.424 20.5139 14.4774 20.4644C14.9115 20.0298 15.342 19.5953 15.7725 19.1571C15.8259 19.1041 15.8792 19.0582 15.9682 19.0865C16.0536 19.0441 16.0927 19.1147 16.1425 19.1677C16.5624 19.5917 16.9786 20.0157 17.402 20.4362C17.4341 20.468 17.459 20.4962 17.4767 20.528C17.0462 20.8601 16.5837 21.164 16.1069 21.4255C16.1069 21.4255 16.1069 21.4255 16.1034 21.4255C16.0749 21.4078 16.0465 21.3866 16.0251 21.3513C15.9966 21.3124 15.9362 21.3124 15.8863 21.3124C15.7476 21.3124 15.6729 21.3972 15.6373 21.5173C15.6195 21.5739 15.6266 21.6233 15.6444 21.6657C15.3918 21.7894 15.1392 21.9024 14.8759 22.0049C14.7869 21.9166 14.698 21.8247 14.609 21.7364C14.5521 21.6799 14.5165 21.6233 14.513 21.535C14.5059 21.3937 14.3742 21.2912 14.2355 21.3018C14.1074 21.3124 13.9971 21.429 13.9971 21.5597C13.9971 21.7011 14.0967 21.8247 14.2426 21.8212C14.3386 21.8212 14.3956 21.8565 14.456 21.9201C14.513 21.9802 14.5735 22.0367 14.6304 22.0968C14.2746 22.2275 13.9152 22.337 13.5452 22.4289C13.3139 22.1957 13.0862 21.966 12.855 21.7328C12.8123 21.6904 12.7803 21.6481 12.7803 21.5739C12.7803 21.4149 12.6842 21.3089 12.549 21.2983C12.4102 21.2841 12.2857 21.3866 12.2644 21.5456C12.2537 21.6198 12.243 21.6834 12.1861 21.7399C11.8552 22.072 11.5279 22.4042 11.197 22.7363H11.1934L11.1827 22.7327ZM11.5136 22.7257C11.784 22.4536 12.0509 22.1816 12.3213 21.913C12.46 21.7752 12.5632 21.7752 12.702 21.913C12.8906 22.1038 13.0827 22.2946 13.2713 22.4854C12.6984 22.6162 12.1114 22.6939 11.5136 22.7222V22.7257ZM11.9619 34.0638V24.5983C13.346 24.4923 14.6838 24.1566 15.929 23.6161C15.9646 23.6373 16.0038 23.6549 16.0465 23.6514C16.1603 23.6514 16.267 23.5595 16.2991 23.45C16.2991 23.45 16.3026 23.45 16.3062 23.45C16.6015 23.3157 16.8897 23.1638 17.1708 22.9977C17.2419 22.9624 17.3131 22.9235 17.3807 22.8776C18.0674 22.4713 18.7078 21.9978 19.302 21.4608C19.3625 21.4184 19.4158 21.3654 19.4728 21.3089C19.9424 20.8743 20.38 20.3973 20.7785 19.892C21.2517 21.0898 21.5008 22.383 21.5008 23.6867C21.5008 29.1138 17.306 33.5833 11.9584 34.0638H11.9619ZM20.7785 16.1115C20.2057 15.3836 19.5546 14.7265 18.8466 14.1576C18.7861 14.1011 18.722 14.0516 18.658 14.0057C18.4836 13.8644 18.3022 13.7336 18.1207 13.61C17.9464 13.4828 17.7649 13.3662 17.5835 13.2531C15.9041 12.2037 13.9757 11.5607 11.9619 11.4052V1.93974C17.306 2.42026 21.5043 6.88978 21.5043 12.3168C21.5043 13.6241 21.2588 14.9102 20.7821 16.1115H20.7785Z" fill="white"/>
</svg>
