<svg width="20" height="16" viewBox="0 0 20 16" fill="none" xmlns="http://www.w3.org/2000/svg">
<path d="M6.85498 2.5C6.85498 2.32741 6.71507 2.1875 6.54248 2.1875C5.50694 2.1875 4.66748 1.34804 4.66748 0.3125C4.66748 0.13991 4.52757 0 4.35498 0C4.18239 0 4.04248 0.13991 4.04248 0.3125C4.04248 1.34804 3.20302 2.1875 2.16748 2.1875C1.99489 2.1875 1.85498 2.32741 1.85498 2.5C1.85498 2.67259 1.99489 2.8125 2.16748 2.8125C3.20302 2.8125 4.04248 3.65196 4.04248 4.6875C4.04248 4.86009 4.18239 5 4.35498 5C4.52757 5 4.66748 4.86009 4.66748 4.6875C4.66748 3.65196 5.50694 2.8125 6.54248 2.8125C6.71507 2.8125 6.85498 2.67259 6.85498 2.5Z" fill="url(#paint0_linear_2_2552)" style="mix-blend-mode:screen"/>
<path d="M6.85498 2.5C6.85498 2.32741 6.71507 2.1875 6.54248 2.1875C5.50694 2.1875 4.66748 1.34804 4.66748 0.3125C4.66748 0.13991 4.52757 0 4.35498 0C4.18239 0 4.04248 0.13991 4.04248 0.3125C4.04248 1.34804 3.20302 2.1875 2.16748 2.1875C1.99489 2.1875 1.85498 2.32741 1.85498 2.5C1.85498 2.67259 1.99489 2.8125 2.16748 2.8125C3.20302 2.8125 4.04248 3.65196 4.04248 4.6875C4.04248 4.86009 4.18239 5 4.35498 5C4.52757 5 4.66748 4.86009 4.66748 4.6875C4.66748 3.65196 5.50694 2.8125 6.54248 2.8125C6.71507 2.8125 6.85498 2.67259 6.85498 2.5Z" fill="white" fill-opacity="0.5"/>
<path d="M14.355 2C14.355 1.72386 14.1311 1.5 13.855 1.5C13.5789 1.5 13.355 1.72386 13.355 2C13.355 4.48488 11.3402 6.5 8.85498 6.5C8.57888 6.5 8.35498 6.7239 8.35498 7C8.35498 7.2761 8.57888 7.5 8.85498 7.5C11.3403 7.5 13.355 9.5142 13.355 12C13.355 12.2761 13.5789 12.5 13.855 12.5C14.1311 12.5 14.355 12.2761 14.355 12C14.355 9.5141 16.3691 7.5 18.855 7.5C19.1311 7.5 19.355 7.2761 19.355 7C19.355 6.7239 19.1311 6.5 18.855 6.5C16.3692 6.5 14.355 4.48492 14.355 2Z" fill="url(#paint1_linear_2_2552)" style="mix-blend-mode:screen"/>
<path d="M14.355 2C14.355 1.72386 14.1311 1.5 13.855 1.5C13.5789 1.5 13.355 1.72386 13.355 2C13.355 4.48488 11.3402 6.5 8.85498 6.5C8.57888 6.5 8.35498 6.7239 8.35498 7C8.35498 7.2761 8.57888 7.5 8.85498 7.5C11.3403 7.5 13.355 9.5142 13.355 12C13.355 12.2761 13.5789 12.5 13.855 12.5C14.1311 12.5 14.355 12.2761 14.355 12C14.355 9.5141 16.3691 7.5 18.855 7.5C19.1311 7.5 19.355 7.2761 19.355 7C19.355 6.7239 19.1311 6.5 18.855 6.5C16.3692 6.5 14.355 4.48492 14.355 2Z" fill="white" fill-opacity="0.5"/>
<path d="M5.35498 8.5C5.35498 8.2239 5.13112 8 4.85498 8C4.57884 8 4.35498 8.2239 4.35498 8.5C4.35498 10.1569 3.01184 11.5 1.35498 11.5C1.07884 11.5 0.85498 11.7239 0.85498 12C0.85498 12.2761 1.07884 12.5 1.35498 12.5C3.01184 12.5 4.35498 13.8431 4.35498 15.5C4.35498 15.7761 4.57884 16 4.85498 16C5.13112 16 5.35498 15.7761 5.35498 15.5C5.35498 13.8431 6.69812 12.5 8.35498 12.5C8.63108 12.5 8.85498 12.2761 8.85498 12C8.85498 11.7239 8.63108 11.5 8.35498 11.5C6.69812 11.5 5.35498 10.1569 5.35498 8.5Z" fill="url(#paint2_linear_2_2552)" style="mix-blend-mode:screen"/>
<path d="M5.35498 8.5C5.35498 8.2239 5.13112 8 4.85498 8C4.57884 8 4.35498 8.2239 4.35498 8.5C4.35498 10.1569 3.01184 11.5 1.35498 11.5C1.07884 11.5 0.85498 11.7239 0.85498 12C0.85498 12.2761 1.07884 12.5 1.35498 12.5C3.01184 12.5 4.35498 13.8431 4.35498 15.5C4.35498 15.7761 4.57884 16 4.85498 16C5.13112 16 5.35498 15.7761 5.35498 15.5C5.35498 13.8431 6.69812 12.5 8.35498 12.5C8.63108 12.5 8.85498 12.2761 8.85498 12C8.85498 11.7239 8.63108 11.5 8.35498 11.5C6.69812 11.5 5.35498 10.1569 5.35498 8.5Z" fill="white" fill-opacity="0.5"/>
<defs>
<linearGradient id="paint0_linear_2_2552" x1="-2.84502" y1="51.2" x2="65.605" y2="51.2107" gradientUnits="userSpaceOnUse">
<stop stop-color="#E59CFF"/>
<stop offset="0.5" stop-color="#BA9CFF"/>
<stop offset="1" stop-color="#9CB2FF"/>
</linearGradient>
<linearGradient id="paint1_linear_2_2552" x1="-11.7587" y1="21.0909" x2="19.355" y2="21.0958" gradientUnits="userSpaceOnUse">
<stop stop-color="#E59CFF"/>
<stop offset="0.5" stop-color="#BA9CFF"/>
<stop offset="1" stop-color="#9CB2FF"/>
</linearGradient>
<linearGradient id="paint2_linear_2_2552" x1="0.85498" y1="16" x2="43.6362" y2="16.0067" gradientUnits="userSpaceOnUse">
<stop stop-color="#E59CFF"/>
<stop offset="0.5" stop-color="#BA9CFF"/>
<stop offset="1" stop-color="#9CB2FF"/>
</linearGradient>
</defs>
</svg>
