<svg width="43" height="43" viewBox="0 0 43 43" fill="none" xmlns="http://www.w3.org/2000/svg">
<g id="qr-code-stroke-rounded">
<path id="Path 36463" d="M1.61499 7.67199C1.61499 4.52679 1.61499 2.95471 2.59151 1.97735C3.56803 1 5.13878 1 8.28131 1C11.4238 1 12.9956 1 13.9711 1.97735C14.9466 2.95471 14.9476 4.52679 14.9476 7.67199C14.9476 10.8172 14.9476 12.3903 13.9711 13.3666C12.9946 14.3429 11.4238 14.344 8.28131 14.344C5.13878 14.344 3.567 14.344 2.59151 13.3666C1.61603 12.3893 1.61499 10.8172 1.61499 7.67199Z" stroke="white" stroke-width="2"/>
<path id="Path 36464" d="M1.61499 34.3614C1.61499 31.2162 1.61499 29.6431 2.59151 28.6658C3.56803 27.6884 5.13878 27.6895 8.28131 27.6895C11.4238 27.6895 12.9956 27.6895 13.9711 28.6668C14.9466 29.6442 14.9476 31.2162 14.9476 34.3625C14.9476 37.5087 14.9476 39.0808 13.9711 40.0582C12.9946 41.0355 11.4238 41.0355 8.28131 41.0355C5.13878 41.0355 3.567 41.0355 2.59151 40.0582C1.61603 39.0808 1.61499 37.5066 1.61499 34.3614Z" stroke="white" stroke-width="2"/>
<path id="Path 36465" d="M1.61499 21.0171H14.9487" stroke="white" stroke-width="2" stroke-linecap="round" stroke-linejoin="round"/>
<path id="Path 36466" d="M21.615 1V12.1252" stroke="white" stroke-width="2" stroke-linecap="round" stroke-linejoin="round"/>
<path id="Path 36467" d="M28.2813 7.67199C28.2813 4.52679 28.2812 2.95367 29.2578 1.97735C30.2343 1.00104 31.805 1 34.9476 1C38.0901 1 39.6619 1 40.6384 1.97735C41.6149 2.95471 41.6149 4.52679 41.6149 7.67199C41.6149 10.8172 41.6149 12.3903 40.6384 13.3666C39.6619 14.3429 38.0911 14.344 34.9476 14.344C31.804 14.344 30.2333 14.344 29.2567 13.3666C28.2802 12.3893 28.2813 10.8172 28.2813 7.67199Z" stroke="white" stroke-width="2"/>
<path id="Path 36468" d="M41.615 21.0171H28.2813C25.1388 21.0171 23.567 21.0171 22.5905 21.9944C21.614 22.9718 21.615 24.5439 21.615 27.6891M21.615 33.8485V40.0079M28.2813 27.6901V31.0266C28.2813 34.2436 30.0224 34.3632 32.7255 34.3632C33.3149 34.3632 33.8801 34.5975 34.2968 35.0145C34.7135 35.4316 34.9476 35.9973 34.9476 36.5871M30.5034 41.0351H28.2813M34.9476 27.6901C38.0902 27.6901 39.6619 27.6901 40.6385 28.6685C41.615 29.6469 41.615 31.2221 41.615 34.3715C41.615 37.5208 41.615 39.096 40.6385 40.0744C39.9258 40.7887 38.8963 40.9821 37.1708 41.0341" stroke="white" stroke-width="2" stroke-linecap="round"/>
</g>
</svg>
