<svg width="174" height="151" viewBox="0 0 174 151" fill="none" xmlns="http://www.w3.org/2000/svg">
<g id="Layer_1" clip-path="url(#clip0_1_541)">
<g id="Group">
<path id="Vector" d="M36.8046 137.658H36.8273C36.472 137.162 35.9958 136.689 35.3911 136.261C34.7864 135.825 34.0305 135.427 33.131 135.059C35.6254 133.721 36.8727 131.768 36.8727 129.206C36.8727 126.87 36.0336 125.067 34.348 123.79H34.3253C32.685 122.468 30.4475 121.807 27.6129 121.807H3.14453C2.29037 121.807 1.52691 122.175 0.861723 122.903C0.287241 123.474 0 124.248 0 125.217V147.206C0 147.672 0.0680308 148.115 0.211651 148.528C0.347713 148.934 0.574482 149.302 0.876841 149.64C1.19432 149.956 1.54203 150.181 1.90486 150.324C2.27525 150.467 2.69099 150.534 3.14453 150.534H27.4542C30.629 150.534 33.1385 149.753 34.9829 148.198C35.9278 147.409 36.6459 146.44 37.1297 145.306C37.6134 144.171 37.8629 142.864 37.8629 141.399C37.8629 140.678 37.7722 140.009 37.5832 139.386C37.4018 138.762 37.1372 138.184 36.7971 137.658H36.8046ZM5.66923 127.05H27.2123C29.7068 127.05 30.954 127.922 30.954 129.672C30.954 130.641 30.6668 131.385 30.0998 131.896C29.5329 132.407 28.6712 132.67 27.5222 132.67H5.66923V127.058V127.05ZM30.8028 144.156C30.0469 144.757 28.9055 145.058 27.371 145.058H5.66923V137.996H6.4856L6.13033 137.643H27.3635C28.9282 137.643 30.062 137.921 30.7726 138.477C31.1581 138.83 31.4453 139.243 31.6343 139.716C31.8233 140.19 31.9215 140.783 31.9215 141.489C31.9215 142.661 31.5436 143.548 30.7953 144.149L30.8028 144.156Z" fill="white"/>
<path id="Vector_2" d="M0.884613 149.656C0.884613 149.656 0.884613 149.656 0.884613 149.648C0.884613 149.648 0.876877 149.648 0.869141 149.633L0.892349 149.656H0.884613Z" fill="white"/>
<path id="Vector_3" d="M58.2722 124.421C57.5616 122.573 56.2842 121.649 54.4398 121.649C52.5954 121.649 51.3104 122.573 50.6754 124.421V124.444L40.3347 150.632C40.3045 150.677 40.3347 150.7 40.4481 150.7H46.1627C46.3668 150.7 46.5029 150.617 46.5633 150.459L48.8235 144.562H59.9654L62.1802 150.437C62.2709 150.609 62.4145 150.7 62.6261 150.7H68.4314C68.5373 150.7 68.5675 150.654 68.5221 150.564L58.2873 124.421H58.2722ZM50.3201 139.566L52.6861 132.565L53.9711 128.448L54.7497 128.47C54.9084 129.221 55.105 129.95 55.3393 130.656C55.5661 131.37 55.8231 132.076 56.1028 132.782L58.4914 139.559H50.3201V139.566Z" fill="white"/>
<path id="Vector_4" d="M90.9573 135.637C90.3072 135.179 89.4152 134.751 88.2889 134.337C87.1627 133.924 85.8247 133.549 84.2902 133.196C81.8411 132.61 80.3142 132.174 79.7095 131.896H79.7322C78.6361 131.4 78.0919 130.649 78.0919 129.65C78.0919 127.787 79.5281 126.855 82.4081 126.855C84.8723 126.855 87.1475 127.839 89.2263 129.807C89.2867 129.747 89.3548 129.687 89.4228 129.635C89.5664 129.514 89.7856 129.327 90.0653 129.064L89.4001 129.702L93.2325 126.179C93.3761 126.044 93.4215 125.954 93.3686 125.893C90.4584 122.873 86.8905 121.356 82.6499 121.356C81.1759 121.356 79.8153 121.544 78.5757 121.919C77.336 122.295 76.2173 122.866 75.2346 123.625C73.1105 125.15 72.0447 127.208 72.0447 129.785C72.0447 132.362 72.846 134.24 74.456 135.532C75.7562 136.629 77.918 137.523 80.9416 138.191C82.3703 138.529 83.5495 138.822 84.4717 139.085C85.3939 139.341 86.059 139.596 86.4748 139.844L86.4521 139.822C87.5179 140.347 88.0471 141.189 88.0471 142.331C88.0471 143.375 87.6011 144.164 86.7091 144.705C85.8172 145.246 84.4943 145.516 82.7558 145.516C81.1911 145.516 79.7775 145.246 78.5227 144.712C77.268 144.179 76.1341 143.375 75.1137 142.301L74.9776 142.165L71.0394 145.666L71.0847 145.644C70.9487 145.764 70.9033 145.862 70.926 145.952C72.2715 147.567 73.9042 148.806 75.8393 149.678C77.7744 150.549 79.959 150.985 82.3929 150.985C84.328 150.985 86.0288 150.782 87.5104 150.377C88.9844 149.971 90.2316 149.347 91.2521 148.498C93.1267 146.958 94.064 144.787 94.064 141.985C94.064 140.618 93.7994 139.408 93.2703 138.342C92.7412 137.275 91.9626 136.373 90.9421 135.622L90.9573 135.637Z" fill="white"/>
<path id="Vector_5" d="M126.666 144.712H105.206V138.154H121.707C121.911 138.154 122.017 138.049 122.017 137.846V132.542C122.017 132.369 121.934 132.279 121.775 132.279H105.213V127.726H126.341C126.477 127.726 126.537 127.666 126.537 127.554V122.115C126.537 121.964 126.469 121.867 126.341 121.807V121.829H102.56C100.451 121.829 99.3931 122.964 99.3931 125.24V147.229C99.3931 149.445 100.451 150.549 102.56 150.549H126.673C126.719 150.549 126.741 150.489 126.741 150.376V144.877C126.741 144.772 126.719 144.72 126.673 144.72L126.666 144.712Z" fill="white"/>
<path id="Vector_6" d="M173.924 150.331L173.97 150.399L166.66 139.288C170.614 137.763 172.594 134.916 172.594 130.746C172.594 127.929 171.566 125.698 169.518 124.053C167.688 122.588 165.315 121.852 162.412 121.852H134.338C132.229 121.852 131.171 122.986 131.171 125.262V150.331C131.171 150.451 131.216 150.504 131.307 150.504H136.84C136.946 150.504 136.999 150.444 136.999 150.331V140.077H160.515L167.25 150.399C167.325 150.474 167.469 150.512 167.696 150.512H173.985C174.045 150.512 174.03 150.451 173.94 150.339L173.924 150.331ZM162.321 134.833L162.276 134.901H136.991V127.328H162.276C165.201 127.328 166.66 128.515 166.66 130.897C166.66 133.594 165.217 134.908 162.321 134.833Z" fill="white"/>
</g>
<g id="Group_2">
<path id="Vector_7" d="M168.119 85.6418V97.1283H138.125V85.6418H104.631C100.353 85.6418 97.0495 86.6259 94.7214 88.5942C92.3932 90.5624 91.2291 93.327 91.2291 96.8879C91.2291 96.9781 91.2291 97.0532 91.2367 97.1283H85.5599V88.7144H80.7599V97.1283H5.80516V85.5366L1.07324 88.7219V119.26L5.80516 115.459V101.929H75.1058H92.1286H172.919V85.6568H168.119V85.6418ZM132.516 97.1283H96.5506V97.0231C96.5506 94.7844 97.2536 93.1242 98.6671 92.0424C100.081 90.9531 102.069 90.4122 104.631 90.4122H132.516V97.1283Z" fill="white"/>
<path id="Vector_8" d="M160.666 114.813C162.899 114.813 164.71 113.013 164.71 110.794C164.71 108.574 162.899 106.774 160.666 106.774C158.432 106.774 156.622 108.574 156.622 110.794C156.622 113.013 158.432 114.813 160.666 114.813Z" fill="white"/>
<path id="Vector_9" d="M67.94 106.774C65.7026 106.774 63.896 108.577 63.896 110.794C63.896 113.01 65.7101 114.813 67.94 114.813C70.1699 114.813 71.9841 113.01 71.9841 110.794C71.9841 108.577 70.1699 106.774 67.94 106.774Z" fill="white"/>
<path id="Vector_10" d="M59.8517 114.813C62.0851 114.813 63.8957 113.013 63.8957 110.794C63.8957 108.574 62.0851 106.774 59.8517 106.774C57.6182 106.774 55.8076 108.574 55.8076 110.794C55.8076 113.013 57.6182 114.813 59.8517 114.813Z" fill="white"/>
</g>
<g id="Group_3">
<path id="Vector_11" d="M111.865 26.1884C111.865 11.7495 100.043 0 85.5147 0H83.4889V24.2501C78.8628 24.6032 74.4635 26.1808 70.7142 28.72C70.563 28.8102 70.4194 28.9154 70.2758 29.013C69.278 29.7192 68.318 30.493 67.4336 31.3419C67.4185 31.3494 67.4185 31.3569 67.4109 31.3569C66.9272 31.8077 66.4509 32.2809 66.0125 32.7768C64.7577 34.129 63.6617 35.639 62.7092 37.2617L62.1348 38.2608L62.7092 39.2675C64.3571 42.1222 66.519 44.5938 69.0437 46.5997C69.1722 46.6973 69.3007 46.8025 69.4367 46.9002C70.684 47.8542 72.0143 48.6956 73.4052 49.4168C73.7831 49.6121 74.1611 49.7924 74.5466 49.9727C77.3434 51.2498 80.367 52.0537 83.4964 52.2866V76.5292H85.5222C100.051 76.5292 111.873 64.7797 111.873 50.3484C111.873 46.1189 110.837 41.957 108.895 38.2533C110.845 34.5497 111.873 30.4028 111.873 26.1658L111.865 26.1884ZM79.8076 28.9529C79.9588 28.9905 80.1176 28.9529 80.2612 28.8402C80.5938 28.7576 80.9264 28.6825 81.2665 28.6149C81.5235 28.6299 81.773 28.6975 81.9166 28.8177C82.1736 29.0205 82.4533 29.0055 82.6725 28.7801C82.7783 28.675 82.8237 28.5247 82.8237 28.3745C83.3452 28.3069 83.8744 28.2543 84.4035 28.2317C84.3884 28.2693 84.3733 28.3144 84.3733 28.3595C84.3733 28.5773 84.275 28.7125 84.1389 28.8478C83.2545 29.7342 82.3701 30.6282 81.4857 31.5222C81.1909 31.8152 80.9717 31.8152 80.6769 31.5222C79.9588 30.7935 79.2332 30.0648 78.5151 29.3436C78.9384 29.2008 79.3617 29.0806 79.7925 28.9604L79.8076 28.9529ZM85.8926 48.335C85.7717 48.3425 85.6507 48.3425 85.5222 48.3425C84.789 48.3425 84.0482 48.3125 83.3226 48.2298C83.8593 47.689 84.3884 47.1556 84.9251 46.6147C85.0536 46.487 85.167 46.3893 85.3786 46.3968C85.6658 46.3968 85.8775 46.1414 85.8775 45.8634C85.8775 45.7958 85.8624 45.7357 85.8397 45.6756C85.5978 45.6982 85.3484 45.7132 85.0914 45.7132C84.9931 45.7132 84.8948 45.7057 84.7966 45.6982C84.789 45.7357 84.7663 45.7658 84.7663 45.8108C84.7588 45.9836 84.7361 46.1264 84.6076 46.2541C83.9726 46.8926 83.3377 47.5312 82.7027 48.1698C81.6596 48.0345 80.6467 47.8242 79.6489 47.5537C79.2332 47.133 78.8099 46.7123 78.3941 46.2916C78.2732 46.1639 78.2051 46.0437 78.2051 45.8559C78.2051 45.5179 77.9633 45.3 77.6382 45.3075C77.3661 45.3075 77.1167 45.5404 77.094 45.8184C77.0637 46.1038 77.2754 46.3818 77.5929 46.3968C77.797 46.4043 77.9179 46.502 78.0464 46.6297C78.2581 46.84 78.4697 47.0504 78.6738 47.2683C75.9299 46.3818 73.3976 44.977 71.1904 43.1364C71.9614 42.3551 72.74 41.5738 73.511 40.7925C73.6471 40.6573 73.7831 40.5597 73.9948 40.5597C74.3047 40.5597 74.4786 40.3193 74.4861 40.0112C74.4861 39.7107 74.2896 39.4929 73.9872 39.4703C73.6924 39.4403 73.443 39.6206 73.4203 39.9286C73.4052 40.1615 73.3296 40.3193 73.1633 40.477C72.3772 41.2583 71.6062 42.0471 70.8276 42.8284C69.9356 42.0546 69.1041 41.1982 68.3407 40.2817C68.8925 40.2817 69.4367 40.2817 69.9885 40.2817C70.2304 40.2817 70.4799 40.2291 70.6537 40.492C70.6991 40.5597 70.8427 40.5597 70.8956 40.5747C71.2358 40.5747 71.4172 40.4319 71.5003 40.1615C71.5759 39.9136 71.4777 39.7032 71.2887 39.568C71.0695 39.4178 70.8049 39.4102 70.6084 39.6131C70.4572 39.7708 70.2985 39.7934 70.1019 39.7934C69.3838 39.7934 68.6733 39.7934 67.9552 39.7934C67.5621 39.2976 67.1993 38.7942 66.8591 38.2759C67.2597 37.6749 67.6755 37.0964 68.1215 36.5405C68.5145 36.9387 68.9076 37.3368 69.3082 37.735C69.4216 37.8477 69.4972 37.9528 69.5048 38.1331C69.5199 38.4562 69.7618 38.6665 70.0566 38.659C70.3589 38.644 70.5933 38.4036 70.5933 38.1031C70.5933 37.7951 70.3892 37.5472 70.0641 37.5547C69.8449 37.5622 69.7164 37.4645 69.5804 37.3218C69.1949 36.9311 68.8169 36.548 68.4314 36.1649C68.8471 35.6691 69.2856 35.1883 69.7467 34.7375C69.8147 34.7676 69.8827 34.7826 69.9659 34.7826C70.1322 34.7826 70.2531 34.8427 70.3665 34.9629C71.2811 35.8869 72.1958 36.8109 73.118 37.735C73.2087 37.8326 73.2691 37.9228 73.2767 38.073C73.2767 38.4111 73.4883 38.644 73.768 38.659C74.0855 38.6815 74.3274 38.4637 74.3652 38.0881C74.3803 37.9303 74.4408 37.8251 74.5466 37.7199C75.4688 36.7959 76.3834 35.8719 77.2981 34.9403C77.3888 34.8502 77.4795 34.7751 77.6307 34.7751C78.001 34.7751 78.2051 34.5497 78.2051 34.2041C78.2051 33.9036 77.9633 33.6557 77.6685 33.6557C77.3812 33.6557 77.1167 33.9036 77.1091 34.2342C77.1091 34.3919 77.0637 34.5046 76.9504 34.6098C76.0282 35.5338 75.1135 36.4579 74.1989 37.3894C74.0855 37.5021 73.9721 37.5998 73.7831 37.5397C73.6017 37.6298 73.5186 37.4796 73.4128 37.3669C72.5208 36.4654 71.6364 35.5639 70.7369 34.6699C70.6084 34.5422 70.5177 34.422 70.5328 34.2116C70.5328 34.1365 70.5252 34.0689 70.5025 34.0013C71.0997 33.4604 71.7347 32.9496 72.3923 32.4763C72.5661 32.4763 72.74 32.4763 72.9139 32.4763C73.1935 32.4763 73.4808 32.4162 73.6849 32.7016C73.7454 32.7843 73.8739 32.7843 73.9797 32.7843C74.2745 32.7843 74.4332 32.604 74.5088 32.3486C74.5844 32.0931 74.4559 31.8978 74.2669 31.7701C74.0553 31.6274 73.7983 31.6199 73.6168 31.8227C73.4959 31.9579 73.3825 31.988 73.2162 31.988C73.1784 31.988 73.1331 31.988 73.0953 31.988C73.8512 31.4846 74.6298 31.0264 75.431 30.6132C75.8543 31.0339 76.27 31.4621 76.6933 31.8828C76.8143 32.003 76.8899 32.1232 76.8974 32.311C76.9126 32.6115 77.1922 32.8293 77.487 32.8068C77.7592 32.7843 77.9935 32.5364 77.9935 32.2584C77.9935 31.9579 77.7818 31.695 77.4719 31.7025C77.2678 31.7025 77.1469 31.6274 77.0184 31.4921C76.6556 31.124 76.2852 30.7559 75.9223 30.3803C76.6102 30.0422 77.3207 29.7493 78.0464 29.4863C78.8401 30.2901 79.6262 31.0865 80.4199 31.8828C80.4199 31.8828 80.4275 31.8978 80.435 31.9053H81.8183C81.8183 31.9053 81.8334 31.8828 81.841 31.8753C82.7632 30.9512 83.6778 30.0272 84.5925 29.1032C84.6983 28.998 84.7966 28.9304 84.9553 28.9379C85.2879 28.9379 85.492 28.7276 85.4996 28.4196C85.4996 28.3444 85.492 28.2693 85.4693 28.2017H85.5449C86.3159 28.2017 87.0794 28.2468 87.8277 28.3219C87.805 28.5322 87.7068 28.675 87.5707 28.8177C86.7846 29.6065 85.9984 30.3953 85.2199 31.1916C85.4466 31.1916 85.6583 31.2067 85.8699 31.2217C86.5729 30.5155 87.2684 29.8094 87.9713 29.1107C88.2208 28.8553 88.5156 28.8628 88.7726 29.1182C89.6645 30.0197 90.5565 30.9212 91.456 31.8227C91.577 31.9504 91.645 32.0706 91.645 32.2584C91.645 32.5965 91.8869 32.8143 92.2119 32.8068C92.484 32.8068 92.7335 32.5739 92.7562 32.296C92.7864 32.0105 92.5748 31.7325 92.2573 31.7175C92.0532 31.7025 91.9322 31.6123 91.8037 31.4846C90.9118 30.5831 90.0198 29.6816 89.1279 28.7877C89.0372 28.6975 88.9767 28.5923 88.9389 28.4797C90.3675 28.6975 91.7584 29.0506 93.0888 29.5314C93.8069 30.2601 94.5325 30.9888 95.2506 31.7175C95.4245 31.8903 95.5908 32.0405 95.5832 32.3486C95.5681 32.6415 95.8856 32.8594 96.1728 32.8369C96.4601 32.8068 96.6642 32.5814 96.6717 32.2885C96.6717 31.988 96.4903 31.7476 96.1879 31.74C95.9838 31.74 95.8629 31.6499 95.7344 31.5222C95.2204 31.0038 94.7139 30.4855 94.1999 29.9746C97.9794 31.5598 101.283 34.1666 103.702 37.5397C103.565 37.5321 103.422 37.5772 103.301 37.6899C103.15 37.8326 103.006 37.8477 102.825 37.8477C101.834 37.8477 100.844 37.8477 99.854 37.8477C99.6122 37.8477 99.3627 37.9002 99.1889 37.6373C99.1435 37.5697 98.9999 37.5697 98.947 37.5547C98.6068 37.5547 98.4254 37.6974 98.3423 37.9679C98.2667 38.2158 98.3649 38.4261 98.5539 38.5613C98.7731 38.7116 99.0377 38.7191 99.2342 38.5163C99.3854 38.3585 99.5441 38.336 99.7407 38.336C100.769 38.336 101.789 38.336 102.817 38.336C102.999 38.336 103.15 38.3585 103.293 38.5012C103.52 38.7191 103.853 38.6966 104.057 38.4862C104.125 38.4186 104.155 38.336 104.185 38.2458C104.185 38.2458 104.185 38.2458 104.185 38.2533C104.193 38.2608 104.2 38.2759 104.208 38.2834C103.467 39.4178 102.628 40.4695 101.706 41.4311C101.313 41.0329 100.927 40.6423 100.534 40.2441C100.421 40.1314 100.345 40.0263 100.345 39.846C100.33 39.5229 100.088 39.3126 99.7936 39.3201C99.4912 39.3351 99.2569 39.5755 99.2569 39.876C99.2569 40.184 99.461 40.4319 99.786 40.4244C100.005 40.4169 100.134 40.5146 100.27 40.6573C100.64 41.0329 101.011 41.4086 101.381 41.7767C101.358 41.7992 101.336 41.8293 101.305 41.8518C100.799 42.3626 100.255 42.8434 99.7029 43.2942C99.6273 43.2641 99.5517 43.2266 99.4837 43.159C98.569 42.2349 97.6544 41.3109 96.7322 40.3869C96.6415 40.2892 96.581 40.1991 96.5734 40.0488C96.5734 39.7107 96.3618 39.4779 96.0821 39.4628C95.7646 39.4403 95.5228 39.6582 95.485 40.0338C95.4698 40.1915 95.4094 40.2967 95.3035 40.4019C94.3813 41.3259 93.4667 42.25 92.5521 43.1815C92.4614 43.2716 92.3707 43.3468 92.2195 43.3468C91.8491 43.3468 91.645 43.5721 91.645 43.9177C91.645 44.2182 91.8869 44.4661 92.1817 44.4661C92.4689 44.4661 92.7335 44.2182 92.7411 43.8877C92.7411 43.7299 92.7864 43.6172 92.8922 43.512C93.8144 42.588 94.7291 41.664 95.6437 40.7324C95.7571 40.6198 95.8705 40.5221 96.0594 40.5822C96.2409 40.492 96.324 40.6423 96.4298 40.755C97.3218 41.6565 98.2062 42.558 99.1057 43.4519C99.1737 43.5196 99.2267 43.5797 99.2644 43.6473C98.3498 44.3534 97.3671 44.9995 96.3542 45.5554C96.3542 45.5554 96.3542 45.5554 96.3467 45.5554C96.2862 45.5179 96.2257 45.4728 96.1804 45.3977C96.1199 45.315 95.9914 45.315 95.8856 45.315C95.5908 45.315 95.432 45.4953 95.3565 45.7507C95.3187 45.8709 95.3338 45.9761 95.3716 46.0663C94.8349 46.3292 94.2982 46.5696 93.7388 46.7875C93.5499 46.5997 93.3609 46.4043 93.1719 46.2165C93.051 46.0963 92.9754 45.9761 92.9678 45.7883C92.9527 45.4878 92.673 45.27 92.3782 45.2925C92.1061 45.315 91.8718 45.5629 91.8718 45.8409C91.8718 46.1414 92.0834 46.4043 92.3933 46.3968C92.5974 46.3968 92.7184 46.4719 92.8469 46.6072C92.9678 46.7349 93.0963 46.8551 93.2173 46.9828C92.4614 47.2607 91.6979 47.4936 90.9118 47.689C90.4204 47.1931 89.9367 46.7048 89.4453 46.209C89.3546 46.1189 89.2866 46.0287 89.2866 45.8709C89.2866 45.5329 89.0825 45.3075 88.7953 45.285C88.5005 45.2549 88.2359 45.4728 88.1905 45.8108C88.1679 45.9686 88.1452 46.1038 88.0242 46.224C87.3213 46.9302 86.6258 47.6364 85.9229 48.3425H85.9153L85.8926 48.335ZM86.5956 48.32C87.1701 47.7415 87.737 47.1631 88.3115 46.5921C88.6063 46.2992 88.8255 46.2992 89.1203 46.5921C89.5209 46.9978 89.9291 47.4035 90.3297 47.8092C89.1127 48.0871 87.8655 48.2524 86.5956 48.3125V48.32ZM87.5405 72.4274V52.3016C90.4809 52.0762 93.3231 51.3625 95.9687 50.2131C96.0443 50.2582 96.1275 50.2958 96.2182 50.2883C96.4601 50.2883 96.6868 50.0929 96.7549 49.8601C96.7549 49.8601 96.7624 49.8601 96.77 49.8601C97.3974 49.5746 98.0097 49.2515 98.6068 48.8985C98.758 48.8233 98.9092 48.7407 99.0528 48.643C100.512 47.7791 101.872 46.7724 103.135 45.6305C103.263 45.5404 103.377 45.4277 103.497 45.3075C104.495 44.3835 105.425 43.3693 106.272 42.295C107.277 44.8417 107.806 47.5913 107.806 50.3634C107.806 61.9025 98.8941 71.4057 87.5329 72.4274H87.5405ZM106.279 34.2567C105.062 32.7092 103.679 31.3118 102.175 30.1023C102.046 29.9821 101.91 29.877 101.774 29.7793C101.404 29.4788 101.018 29.2008 100.633 28.9379C100.262 28.6675 99.8767 28.4195 99.4912 28.1792C95.9234 25.948 91.8264 24.5807 87.548 24.2501V4.12433C98.9016 5.14602 107.821 14.6493 107.821 26.1884C107.821 28.968 107.3 31.7025 106.287 34.2567H106.279Z" fill="white"/>
<path id="Vector_12" d="M88.8484 43.339C89.0374 43.2113 89.2113 43.0836 89.3851 42.9409C89.3851 42.9409 89.3851 42.9334 89.3927 42.9334C89.7177 42.6704 90.0049 42.3774 90.2544 42.0619C91.101 41.0252 91.5999 39.703 91.5999 38.2757C91.5999 38.0653 91.5848 37.855 91.5545 37.6521C91.5243 37.3591 91.4638 37.0737 91.3882 36.7882C91.3656 36.7056 91.3353 36.6079 91.3127 36.5253C91.2975 36.5703 91.2673 36.6079 91.2446 36.6455C91.1766 36.7957 91.0934 36.9309 90.9801 37.0586C90.587 37.5995 90.0125 37.9902 89.3549 38.1705C89.0979 38.2456 88.8333 38.2832 88.5612 38.2832C88.4705 38.2832 88.3646 38.2757 88.2739 38.2681C86.7319 38.1254 85.5225 36.8483 85.5225 35.2632C85.5225 35.2106 85.5225 35.1655 85.53 35.1129C85.5376 34.9026 85.5754 34.6922 85.6283 34.4969C85.8173 33.7682 86.2784 33.1522 86.8982 32.754C87.0192 32.6714 87.1401 32.5963 87.2762 32.5362C87.0569 32.4685 86.8302 32.4009 86.5958 32.3709C86.2481 32.2882 85.8853 32.2432 85.5149 32.2432C85.3562 32.2432 85.205 32.2507 85.0463 32.2657C84.6759 32.2807 84.3206 32.3483 83.9729 32.446C83.0053 32.6864 82.1361 33.1672 81.4255 33.8208C80.9039 34.3016 80.4504 34.865 80.1178 35.5036C79.7625 36.1797 79.5358 36.9309 79.4677 37.7348C79.4451 37.9151 79.4375 38.1029 79.4375 38.2907C79.4375 38.3508 79.4375 38.4109 79.4451 38.471C79.5207 41.3482 81.6145 43.7147 84.3735 44.2255C84.6456 44.2781 84.9178 44.3081 85.205 44.3157C85.3033 44.3307 85.4091 44.3307 85.5149 44.3307C86.4598 44.3307 87.3669 44.1128 88.1681 43.7222C88.4024 43.6095 88.6368 43.4893 88.8484 43.3541V43.339Z" fill="white"/>
<path id="Vector_13" d="M96.188 34.7828C96.5509 34.7828 96.7776 34.5424 96.7701 34.2194C96.7701 33.9489 96.5282 33.686 96.2636 33.6635C95.9688 33.6334 95.674 33.8964 95.6589 34.2344C95.6589 34.3922 95.6135 34.4974 95.5002 34.61C94.7518 35.3613 94.011 36.1125 93.2627 36.8713V37.5549C94.1244 36.691 94.9861 35.8195 95.8479 34.9481C95.9386 34.8504 96.0293 34.7903 96.1805 34.7903L96.188 34.7828Z" fill="white"/>
<path id="Vector_14" d="M95.8253 37.5471C95.5154 37.5471 95.3415 37.7875 95.334 38.0955C95.334 38.396 95.5305 38.6138 95.8329 38.6364C96.1277 38.6664 96.3771 38.4861 96.3998 38.1781C96.4149 37.9452 96.4905 37.7875 96.6568 37.6297C97.5488 36.7432 98.4256 35.8493 99.31 34.9553C99.5746 34.6923 99.8694 34.6923 100.134 34.9553C100.368 35.1882 100.595 35.4286 100.837 35.6614C100.973 35.7967 101.071 35.9244 101.071 36.1498C101.071 36.4878 101.328 36.7057 101.638 36.6982C101.925 36.6982 102.152 36.4728 102.175 36.1948C102.198 35.8868 101.993 35.6389 101.661 35.5863C101.555 35.5713 101.449 35.5863 101.366 35.5037C101.033 35.1656 100.701 34.8276 100.361 34.497C100.285 34.4219 100.285 34.3317 100.278 34.2341C100.255 33.881 100.051 33.6631 99.7333 33.6481C99.4461 33.6406 99.1739 33.896 99.1664 34.2191C99.1664 34.3994 99.0908 34.5045 98.9774 34.6172C98.0855 35.5187 97.1935 36.4127 96.3015 37.3142C96.1655 37.4494 96.0294 37.5471 95.8178 37.5471H95.8253Z" fill="white"/>
<path id="Vector_15" d="M74.6069 33.8135C74.5313 33.8661 74.4784 33.9638 74.3726 33.9563C73.8661 33.8886 73.3143 34.1366 72.8532 33.7384C72.7928 33.6858 72.7021 33.6783 72.6416 33.6558C72.3997 33.7008 72.2107 33.7835 72.1276 34.0088C72.0293 34.2492 72.0747 34.4746 72.2636 34.6624C72.4375 34.8277 72.7096 34.8953 72.8457 34.7526C73.2387 34.3244 73.715 34.5047 74.1685 34.4671C74.3424 34.4521 74.4784 34.4972 74.6145 34.6249C74.879 34.8728 75.1738 34.8578 75.4006 34.6249C75.5971 34.4295 75.6047 34.0614 75.4082 33.8436C75.2041 33.6107 74.9093 33.6032 74.6145 33.821L74.6069 33.8135Z" fill="white"/>
<path id="Vector_16" d="M77.4493 40.5596C77.6005 40.507 77.6988 40.5896 77.7895 40.6873C77.9029 40.8075 78.0162 40.9202 78.1372 41.0404V40.3342C78.054 40.2366 77.9936 40.1389 77.986 39.9962C77.9709 39.6581 77.7517 39.4553 77.4569 39.4478C77.1545 39.4478 76.9353 39.6506 76.9126 39.9887C76.8975 40.1389 76.8522 40.2591 76.7463 40.3643C75.8166 41.2958 74.8868 42.2349 73.9646 43.1664C73.8739 43.2641 73.7832 43.3242 73.632 43.3242C73.2692 43.3242 73.0424 43.5646 73.05 43.8876C73.05 44.1581 73.2919 44.421 73.5564 44.4435C73.8512 44.4736 74.146 44.2106 74.1612 43.8726C74.1612 43.7148 74.2065 43.6096 74.3199 43.497C75.2496 42.5654 76.1718 41.6339 77.094 40.6948C77.1999 40.5896 77.3057 40.4995 77.4644 40.5521L77.4493 40.5596Z" fill="white"/>
<path id="Vector_17" d="M80.5032 44.0982C80.3294 43.9405 80.1555 43.7827 79.9968 43.6099C79.1426 43.6099 78.2884 43.6099 77.4267 43.6099C77.2302 43.6099 77.0639 43.5874 76.9127 43.4371C76.754 43.2794 76.5423 43.2643 76.3533 43.362C76.1644 43.4597 76.0132 43.6174 76.0434 43.9029C76.0207 44.1433 76.1568 44.3086 76.3836 44.4062C76.6028 44.5039 76.8144 44.4438 76.9581 44.2635C77.079 44.1208 77.2151 44.0907 77.3889 44.0907C78.1902 44.0907 78.9914 44.0907 79.8002 44.0907C80.0346 44.0907 80.2689 44.0682 80.4957 44.0907L80.5032 44.0982Z" fill="white"/>
<path id="Vector_18" d="M95.2052 44.2932C95.2808 44.2406 95.3337 44.143 95.4395 44.1505C95.946 44.2181 96.4978 43.9702 96.9589 44.3683C97.0193 44.4209 97.11 44.4284 97.1705 44.451C97.4124 44.4059 97.6014 44.3233 97.6845 44.0979C97.7828 43.8575 97.7374 43.6321 97.5485 43.4443C97.3746 43.279 97.1025 43.2114 96.9664 43.3541C96.5734 43.7824 96.0896 43.6021 95.6436 43.6396C95.4697 43.6546 95.3337 43.6096 95.1976 43.4819C94.9331 43.234 94.6383 43.249 94.4115 43.4819C94.215 43.6772 94.2074 44.0453 94.4039 44.2632C94.608 44.496 94.9028 44.5036 95.1976 44.2857L95.2052 44.2932Z" fill="white"/>
<path id="Vector_19" d="M83.0205 45.435C82.8768 45.3975 82.7408 45.3599 82.6047 45.3073C82.4913 45.3223 82.3779 45.3599 82.2872 45.4425C82.2192 45.5026 82.189 45.6228 82.0756 45.6078C81.5842 45.5327 81.04 45.8332 80.6016 45.39C80.5335 45.3223 80.405 45.3223 80.3521 45.2998C80.0195 45.3073 79.8457 45.4651 79.7625 45.728C79.6794 45.9834 79.8003 46.1788 79.9893 46.314C80.201 46.4642 80.4731 46.4717 80.6394 46.2839C80.7981 46.1111 80.9568 46.1111 81.1383 46.1111C81.3877 46.1111 81.6372 46.1111 81.879 46.1111C82.0529 46.1111 82.1814 46.1412 82.3175 46.2689C82.5367 46.4868 82.8768 46.4492 83.0734 46.2238C83.285 45.9909 83.2699 45.6829 83.0507 45.4576C83.0431 45.4501 83.028 45.4425 83.0205 45.435Z" fill="white"/>
</g>
</g>
<defs>
<clipPath id="clip0_1_541">
<rect width="174" height="151" fill="white"/>
</clipPath>
</defs>
</svg>
