<svg xmlns="http://www.w3.org/2000/svg" width="171" height="534" fill="none"><path fill="#fff" fill-rule="evenodd" stroke="#fff" stroke-width="4" d="m97.606.545.082-.083-.099.1.017-.017Zm-12.6 12.649 12.6-12.65a1.633 1.633 0 0 1 2.328.017c.331.298.496.76.496 1.158 0 .396-.165.826-.496 1.157L87.251 15.608l74.118 74.108a13.115 13.115 0 0 1 3.864 9.326c0 3.538-1.387 6.845-3.864 9.325l-18.794 18.85a13.083 13.083 0 0 1-9.314 3.869 13.14 13.14 0 0 1-9.314-3.869l-22.196-22.19c-5.12-5.159-5.153-13.525 0-18.684a13.083 13.083 0 0 1 9.314-3.87c3.501 0 6.837 1.39 9.315 3.87l11.064 11.045a1.699 1.699 0 0 1 0 2.348 1.634 1.634 0 0 1-2.345 0l-11.065-11.045a9.81 9.81 0 0 0-7.002-2.91c-2.642 0-5.152 1.025-7.002 2.91a9.889 9.889 0 0 0 0 13.988l22.196 22.19a9.811 9.811 0 0 0 7.002 2.91c2.642 0 5.153-1.025 7.002-2.91l18.794-18.85c1.883-1.852 2.906-4.332 2.906-6.978 0-2.645-1.023-5.158-2.906-7.01L84.906 17.923 10.887 92.13c-3.864 3.836-3.864 10.119 0 13.988l18.827 18.817a9.812 9.812 0 0 0 7.002 2.91c2.643 0 5.153-1.025 7.002-2.91l22.163-22.223a9.888 9.888 0 0 0 0-13.988 9.86 9.86 0 0 0-13.971 0L40.878 99.802c-.66.661-1.685.661-2.345 0a1.7 1.7 0 0 1 0-2.348l11.032-11.078c5.152-5.126 13.509-5.159 18.661 0a13.115 13.115 0 0 1 3.865 9.325c0 3.539-1.388 6.846-3.865 9.326L46.063 127.25a13.14 13.14 0 0 1-9.314 3.869 13.141 13.141 0 0 1-9.314-3.869L8.608 108.433c-5.12-5.159-5.152-13.525 0-18.684L82.66 15.542 69.944 2.843a1.7 1.7 0 0 1 0-2.348 1.634 1.634 0 0 1 2.345 0l12.716 12.699ZM24.693 44.08a13.155 13.155 0 0 0 3.864-9.325 13.23 13.23 0 0 0-3.864-9.359l-1.09-1.091c-5.153-5.159-13.51-5.126-18.662 0l-1.09 1.091c-5.153 5.16-5.12 13.526 0 18.684l1.09 1.092a13.14 13.14 0 0 0 9.314 3.869c3.534 0 6.837-1.39 9.315-3.87l1.09-1.09h.033ZM7.287 42.857l-1.09-1.091a9.926 9.926 0 0 1-2.906-7.011c0-2.546.957-5.06 2.873-6.978l1.09-1.091a9.86 9.86 0 0 1 13.972 0l1.09 1.091a9.888 9.888 0 0 1 0 13.989l-1.09 1.09c-1.85 1.886-4.36 2.911-7.003 2.911a9.813 9.813 0 0 1-7.002-2.91h.066ZM28.558 233.6c0 3.506-1.387 6.846-3.864 9.326l.033.033-1.09 1.091c-5.153 5.126-13.51 5.159-18.662 0l-1.09-1.091c-5.12-5.159-5.152-13.525 0-18.684l1.09-1.091a13.08 13.08 0 0 1 9.314-3.87c3.501 0 6.837 1.389 9.315 3.87l1.09 1.091a13.114 13.114 0 0 1 3.864 9.325Zm-22.36 7.011 1.09 1.091h.032a9.86 9.86 0 0 0 13.971 0l1.09-1.091a9.81 9.81 0 0 0 2.874-6.978c0-2.645-1.024-5.158-2.906-7.01l-1.09-1.091a9.813 9.813 0 0 0-7.003-2.911c-2.642 0-5.152 1.026-7.002 2.911l-1.09 1.091a9.815 9.815 0 0 0-2.873 6.977c0 2.547.99 5.093 2.906 7.011Zm139.812 2.348c-5.119-5.159-5.152-13.525 0-18.684l.033.033 1.09-1.091a13.137 13.137 0 0 1 9.315-3.869c3.501 0 6.837 1.388 9.314 3.869l1.09 1.091a13.115 13.115 0 0 1 3.864 9.325c0 3.506-1.387 6.846-3.864 9.326l-1.09 1.091c-5.153 5.126-13.509 5.159-18.662 0l-1.09-1.091Zm18.497-16.369-1.09-1.092h.033a9.813 9.813 0 0 0-7.002-2.91c-2.643 0-5.153 1.025-7.003 2.91l-1.09 1.092a9.817 9.817 0 0 0-2.873 6.977c0 2.547.991 5.093 2.906 7.011l1.09 1.091a9.86 9.86 0 0 0 13.972 0l1.09-1.091a9.811 9.811 0 0 0 2.873-6.978c0-2.645-1.024-5.158-2.906-7.01ZM146.01 44.114c-5.119-5.16-5.152-13.526 0-18.685h-.033l1.09-1.09c5.153-5.127 13.509-5.16 18.662 0l1.09 1.09a13.231 13.231 0 0 1 3.864 9.359c0 3.373-1.288 6.746-3.864 9.326l-1.09 1.09a13.14 13.14 0 0 1-9.314 3.87 13.14 13.14 0 0 1-9.315-3.87l-1.09-1.09Zm18.497-16.37-1.09-1.091h-.066a9.86 9.86 0 0 0-13.972 0l-1.09 1.091a9.818 9.818 0 0 0-2.873 6.978c0 2.546.991 5.093 2.906 7.01l1.09 1.092a9.814 9.814 0 0 0 7.003 2.91c2.642 0 5.152-1.025 7.002-2.91l1.09-1.091a9.889 9.889 0 0 0 0-13.989Zm-62.624 135.617a13.172 13.172 0 0 0-3.864 9.326c0 3.538 1.387 6.845 3.864 9.325a13.136 13.136 0 0 0 9.314 3.869 13.14 13.14 0 0 0 9.315-3.869l11.031-11.078a1.699 1.699 0 0 0 0-2.348 1.634 1.634 0 0 0-2.345 0l-11.031 11.078c-1.85 1.885-4.36 2.911-7.003 2.911a9.814 9.814 0 0 1-7.002-2.911c-1.883-1.851-2.906-4.365-2.906-7.01 0-2.646 1.023-5.126 2.906-6.978l22.163-22.222a9.857 9.857 0 0 1 13.971 0l18.827 18.816c1.883 1.852 2.907 4.365 2.907 7.011 0 2.645-1.024 5.125-2.907 6.977l-73.986 74.241-74.118-74.108c-1.882-1.852-2.906-4.366-2.906-7.011 0-2.646 1.024-5.126 2.906-6.978l18.794-18.849c1.85-1.885 4.36-2.91 7.002-2.91a9.812 9.812 0 0 1 7.003 2.91l22.195 22.189c1.883 1.852 2.907 4.365 2.907 7.011a9.811 9.811 0 0 1-2.874 6.978c-1.85 1.885-4.36 2.91-7.002 2.91a9.812 9.812 0 0 1-7.002-2.91l-11.065-11.046a1.635 1.635 0 0 0-2.345 0c-.628.662-.66 1.687 0 2.348l11.065 11.045a13.138 13.138 0 0 0 9.314 3.87c3.501 0 6.837-1.389 9.314-3.87a13.171 13.171 0 0 0 3.865-9.325c0-3.538-1.388-6.845-3.865-9.326L46.13 141.238a13.141 13.141 0 0 0-9.315-3.869 13.14 13.14 0 0 0-9.314 3.869L8.707 160.087a13.175 13.175 0 0 0-3.864 9.326c0 3.538 1.387 6.845 3.864 9.325l74.118 74.109-12.683 12.731c-.22.232-.363.508-.428.798a1.699 1.699 0 0 0 .23 2.045l12.716 12.698-74.052 74.208c-5.152 5.159-5.12 13.525 0 18.684l18.827 18.816a13.137 13.137 0 0 0 9.314 3.869c3.501 0 6.837-1.388 9.314-3.869l22.163-22.222a13.115 13.115 0 0 0 3.865-9.326c0-3.538-1.388-6.845-3.865-9.325-5.152-5.159-13.509-5.126-18.661 0l-11.032 11.078a1.7 1.7 0 0 0 0 2.348c.66.661 1.684.661 2.345 0l11.032-11.078a9.86 9.86 0 0 1 13.971 0 9.888 9.888 0 0 1 0 13.988l-22.163 22.223c-1.85 1.884-4.36 2.91-7.002 2.91a9.817 9.817 0 0 1-7.002-2.91l-18.827-18.817c-3.864-3.869-3.864-10.152 0-13.988L84.906 283.5l74.118 74.109c1.883 1.851 2.906 4.365 2.906 7.01 0 2.646-1.023 5.126-2.906 6.978l-18.794 18.849c-1.849 1.885-4.36 2.91-7.002 2.91a9.811 9.811 0 0 1-7.002-2.91l-22.196-22.189a9.889 9.889 0 0 1 0-13.988c1.85-1.885 4.36-2.911 7.002-2.911a9.81 9.81 0 0 1 7.002 2.911l11.065 11.045a1.634 1.634 0 0 0 2.345 0 1.699 1.699 0 0 0 0-2.348l-11.064-11.045a13.14 13.14 0 0 0-9.315-3.869 13.08 13.08 0 0 0-9.314 3.869c-5.153 5.158-5.12 13.525 0 18.684l22.196 22.189a13.14 13.14 0 0 0 9.314 3.869c3.534 0 6.837-1.389 9.314-3.869l18.794-18.849a13.115 13.115 0 0 0 3.864-9.326c0-3.538-1.387-6.845-3.864-9.325l-74.118-74.109 12.683-12.731a1.71 1.71 0 0 0 .446-.774c.209-.291.314-.628.314-.944 0-.397-.165-.86-.495-1.158L87.482 252.88l74.019-74.208a13.172 13.172 0 0 0 3.864-9.325c0-3.539-1.387-6.846-3.864-9.326l-18.827-18.816c-5.152-5.159-13.509-5.126-18.661 0l-22.163 22.222.033-.066Zm-16.878 115.41-11.691-11.675 11.856-11.901 11.676 11.69-11.84 11.886Zm9.38-155.027-.002-.002-.007-.007c-5.153-5.15-13.503-5.113-18.652.009l-1.09 1.092a13.171 13.171 0 0 0-3.865 9.325c0 3.539 1.388 6.845 3.865 9.326l1.09 1.091a13.14 13.14 0 0 0 9.314 3.869 13.14 13.14 0 0 0 9.314-3.869l1.09-1.091a13.157 13.157 0 0 0 3.865-9.326c0-3.373-1.288-6.779-3.865-9.359l-1.056-1.058Zm-1.255 3.439a9.889 9.889 0 0 1 0 13.989l-1.09 1.091c-1.85 1.885-4.36 2.91-7.002 2.91a9.812 9.812 0 0 1-7.002-2.91l-1.09-1.091c-1.883-1.852-2.907-4.365-2.907-7.011a9.811 9.811 0 0 1 2.874-6.978l1.09-1.091a9.86 9.86 0 0 1 13.971 0l1.09 1.091h.066ZM28.558 499.178c0 3.506-1.387 6.845-3.864 9.326l.033.033-1.09 1.091c-5.153 5.126-13.51 5.159-18.662 0l-1.09-1.091c-5.12-5.159-5.152-13.526 0-18.684l1.09-1.092a13.084 13.084 0 0 1 9.314-3.869c3.501 0 6.837 1.389 9.315 3.869l1.09 1.092a13.114 13.114 0 0 1 3.864 9.325Zm-22.36 7.011 1.09 1.091h.032a9.86 9.86 0 0 0 13.971 0l1.09-1.091a9.81 9.81 0 0 0 2.874-6.978c0-2.645-1.024-5.159-2.906-7.01l-1.09-1.092a9.812 9.812 0 0 0-7.003-2.91c-2.642 0-5.152 1.025-7.002 2.91l-1.09 1.092a9.815 9.815 0 0 0-2.873 6.977c0 2.546.99 5.093 2.906 7.011Zm139.812-16.336c-5.152 5.158-5.119 13.525 0 18.684l1.09 1.091c5.153 5.159 13.509 5.126 18.662 0l1.09-1.091a13.172 13.172 0 0 0 3.864-9.326c0-3.538-1.387-6.845-3.864-9.325l-1.09-1.092a13.14 13.14 0 0 0-9.314-3.869 13.14 13.14 0 0 0-9.315 3.869l-1.09 1.092-.033-.033Zm17.407 1.223 1.09 1.091c1.882 1.852 2.906 4.366 2.906 7.011a9.811 9.811 0 0 1-2.873 6.978l-1.09 1.091a9.86 9.86 0 0 1-13.972 0l-1.09-1.091a9.93 9.93 0 0 1-2.906-7.011 9.82 9.82 0 0 1 2.873-6.978l1.09-1.091c1.85-1.885 4.36-2.91 7.003-2.91a9.813 9.813 0 0 1 7.002 2.91h-.033ZM28.558 300.333c0 3.373-1.288 6.746-3.864 9.325h-.034l-1.09 1.091a13.08 13.08 0 0 1-9.314 3.87 13.138 13.138 0 0 1-9.314-3.87l-1.09-1.091c-5.12-5.159-5.153-13.525 0-18.684l1.09-1.091c5.153-5.126 13.509-5.159 18.662 0l1.09 1.091a13.23 13.23 0 0 1 3.864 9.359Zm-22.36 7.01 1.09 1.092H7.22a9.812 9.812 0 0 0 7.002 2.91c2.643 0 5.153-1.025 7.002-2.91l1.09-1.092a9.888 9.888 0 0 0 0-13.988l-1.09-1.091a9.86 9.86 0 0 0-13.97 0l-1.09 1.091a9.815 9.815 0 0 0-2.874 6.978c0 2.546.99 5.092 2.906 7.01Zm139.812-16.336c-5.152 5.159-5.119 13.525 0 18.684l1.09 1.092a13.14 13.14 0 0 0 9.315 3.869 13.14 13.14 0 0 0 9.314-3.869l1.09-1.092a13.154 13.154 0 0 0 3.864-9.325c0-3.373-1.288-6.779-3.864-9.359l-1.09-1.091c-5.153-5.159-13.509-5.126-18.662 0l-1.09 1.091h.033Zm17.407 1.224 1.09 1.091a9.889 9.889 0 0 1 0 13.988l-1.09 1.092c-1.85 1.884-4.36 2.91-7.002 2.91a9.818 9.818 0 0 1-7.003-2.91l-1.09-1.092a9.927 9.927 0 0 1-2.906-7.01c0-2.547.958-5.06 2.873-6.978l1.09-1.091a9.86 9.86 0 0 1 13.972 0h.066ZM98.019 438.265c0-3.506 1.387-6.846 3.864-9.326l-.033.066 22.163-22.222c5.152-5.126 13.509-5.159 18.661 0l18.827 18.816a13.115 13.115 0 0 1 3.864 9.326c0 3.505-1.387 6.845-3.864 9.325l-74.019 74.208 12.717 12.698c.33.298.495.761.495 1.158 0 .396-.165.826-.495 1.157a1.635 1.635 0 0 1-2.346 0L85.17 520.772l-12.683 12.732a1.635 1.635 0 0 1-2.345 0 1.7 1.7 0 0 1 0-2.348l12.683-12.732-74.118-74.108a13.114 13.114 0 0 1-3.864-9.325c0-3.506 1.387-6.846 3.864-9.326l18.794-18.849a13.14 13.14 0 0 1 9.314-3.869c3.501 0 6.837 1.389 9.315 3.869l22.195 22.189a13.115 13.115 0 0 1 3.865 9.326c0 3.505-1.388 6.845-3.865 9.325a13.14 13.14 0 0 1-9.314 3.869 13.14 13.14 0 0 1-9.314-3.869l-11.065-11.045c-.66-.661-.628-1.686 0-2.348a1.635 1.635 0 0 1 2.345 0l11.065 11.045a9.812 9.812 0 0 0 7.002 2.91c2.642 0 5.153-1.025 7.002-2.91a9.809 9.809 0 0 0 2.874-6.977c0-2.646-1.024-5.159-2.907-7.011l-22.195-22.189a9.813 9.813 0 0 0-7.003-2.911c-2.642 0-5.152 1.026-7.002 2.911L11.02 427.98c-1.882 1.852-2.906 4.332-2.906 6.978 0 2.645 1.024 5.158 2.906 7.01l74.118 74.109 73.986-74.241c1.883-1.852 2.907-4.332 2.907-6.978 0-2.645-1.024-5.158-2.907-7.01l-18.827-18.817a9.86 9.86 0 0 0-13.971 0l-22.163 22.223c-1.883 1.852-2.906 4.332-2.906 6.978 0 2.645 1.023 5.158 2.906 7.01a9.813 9.813 0 0 0 7.002 2.91c2.643 0 5.153-1.025 7.003-2.91l11.031-11.078a1.634 1.634 0 0 1 2.345 0 1.699 1.699 0 0 1 0 2.348l-11.031 11.078a13.144 13.144 0 0 1-18.629 0 13.114 13.114 0 0 1-3.864-9.325Zm-3.639-48.948.005.005 1.057 1.058a13.232 13.232 0 0 1 3.865 9.359c0 3.373-1.288 6.746-3.865 9.325l-1.09 1.092a13.14 13.14 0 0 1-9.314 3.869 13.14 13.14 0 0 1-9.314-3.869l-1.09-1.092a13.114 13.114 0 0 1-3.865-9.325c0-3.505 1.388-6.845 3.865-9.326l1.09-1.091c5.148-5.121 13.495-5.159 18.649-.013l.007.008Zm-1.25 17.433a9.889 9.889 0 0 0 0-13.989h-.066l-1.09-1.091a9.86 9.86 0 0 0-13.971 0l-1.09 1.091a9.81 9.81 0 0 0-2.874 6.978c0 2.645 1.024 5.159 2.907 7.011l1.09 1.091a9.812 9.812 0 0 0 7.002 2.91c2.642 0 5.153-1.025 7.002-2.91l1.09-1.091Z" clip-rule="evenodd"/></svg>