<svg xmlns="http://www.w3.org/2000/svg" width="20" height="21" viewBox="0 0 20 21" fill="none">
    <path d="M4.16663 12.9998H3.33329C2.89127 12.9998 2.46734 12.8242 2.15478 12.5117C1.84222 12.1991 1.66663 11.7752 1.66663 11.3332V3.83317C1.66663 3.39114 1.84222 2.96722 2.15478 2.65466C2.46734 2.3421 2.89127 2.1665 3.33329 2.1665H10.8333C11.2753 2.1665 11.6992 2.3421 12.0118 2.65466C12.3244 2.96722 12.5 3.39114 12.5 3.83317V4.6665M9.16663 7.99984H16.6666C17.5871 7.99984 18.3333 8.74603 18.3333 9.6665V17.1665C18.3333 18.087 17.5871 18.8332 16.6666 18.8332H9.16663C8.24615 18.8332 7.49996 18.087 7.49996 17.1665V9.6665C7.49996 8.74603 8.24615 7.99984 9.16663 7.99984Z" stroke="url(#paint0_linear_637_22)" stroke-width="1.66667" stroke-linecap="round" stroke-linejoin="round"/>
    <defs>
      <linearGradient id="paint0_linear_637_22" x1="9.99996" y1="2.1665" x2="9.99996" y2="18.8332" gradientUnits="userSpaceOnUse">
        <stop stop-color="white"/>
        <stop offset="1" stop-color="white" stop-opacity="0.7"/>
      </linearGradient>
    </defs>
  </svg>