<svg width="115" height="36" viewBox="0 0 115 36" fill="none" xmlns="http://www.w3.org/2000/svg">
<g clip-path="url(#clip0_1_32)">
<path d="M50.4197 28.7461H50.4303C50.2631 28.5129 50.039 28.2903 49.7543 28.0889C49.4697 27.884 49.1139 27.6967 48.6905 27.5236C49.8646 26.8947 50.4517 25.9761 50.4517 24.7712C50.4517 23.6724 50.0568 22.8244 49.2633 22.2238H49.2526C48.4806 21.6019 47.4274 21.291 46.0932 21.291H34.5761C34.1741 21.291 33.8147 21.4641 33.5016 21.8069C33.2312 22.0754 33.096 22.4393 33.096 22.8951V33.2368C33.096 33.4559 33.128 33.6644 33.1956 33.8587C33.2597 34.0495 33.3664 34.2226 33.5087 34.3816C33.6582 34.53 33.8218 34.636 33.9926 34.7031C34.167 34.7703 34.3626 34.8021 34.5761 34.8021H46.0185C47.5128 34.8021 48.6941 34.4346 49.5622 33.7032C50.0069 33.3322 50.3449 32.8765 50.5727 32.3429C50.8004 31.8094 50.9178 31.1946 50.9178 30.5057C50.9178 30.1665 50.8751 29.852 50.7861 29.5588C50.7007 29.2655 50.5762 28.9934 50.4161 28.7461H50.4197ZM35.768 23.7572H45.9082C47.0823 23.7572 47.6694 24.1671 47.6694 24.9903C47.6694 25.4461 47.5342 25.7959 47.2673 26.0361C47.0005 26.2764 46.5949 26.4001 46.0541 26.4001H35.768V23.7607V23.7572ZM47.5946 31.7988C47.2389 32.0815 46.7016 32.2228 45.9793 32.2228H35.768V28.9016H36.1523L35.9851 28.7355H45.9793C46.7158 28.7355 47.2495 28.8662 47.584 29.1277C47.7654 29.2938 47.9006 29.4881 47.9896 29.7107C48.0785 29.9333 48.1248 30.2124 48.1248 30.5445C48.1248 31.0957 47.9469 31.5126 47.5946 31.7953V31.7988Z" fill="white"/>
<path d="M33.5158 34.3856C33.5158 34.3856 33.5158 34.3856 33.5158 34.3821C33.5158 34.3821 33.5123 34.3821 33.5087 34.375L33.5194 34.3856H33.5158Z" fill="white"/>
<path d="M60.5242 22.5206C60.1898 21.6514 59.5885 21.2168 58.7204 21.2168C57.8522 21.2168 57.2474 21.6514 56.9485 22.5206V22.5312L52.0812 34.848C52.067 34.8692 52.0812 34.8798 52.1346 34.8798H54.8244C54.9205 34.8798 54.9845 34.8409 55.013 34.7667L56.0768 31.9931H61.3212L62.3637 34.7561C62.4064 34.8374 62.474 34.8798 62.5736 34.8798H65.3061C65.3559 34.8798 65.3702 34.8586 65.3488 34.8162L60.5314 22.5206H60.5242ZM56.7848 29.64L57.8985 26.347L58.5033 24.4108L58.8698 24.4214C58.9445 24.7748 59.037 25.1175 59.1473 25.4496C59.2541 25.7853 59.375 26.1174 59.5067 26.4495L60.631 29.6365H56.7848V29.64Z" fill="white"/>
<path d="M75.9088 27.7919C75.6029 27.5763 75.183 27.3749 74.6529 27.1806C74.1228 26.9863 73.493 26.8096 72.7707 26.6436C71.618 26.368 70.8993 26.163 70.6146 26.0323H70.6253C70.1094 25.7991 69.8532 25.4458 69.8532 24.9759C69.8532 24.0996 70.5292 23.6615 71.8848 23.6615C73.0447 23.6615 74.1156 24.1244 75.0941 25.0501C75.1225 25.0218 75.1546 24.9935 75.1866 24.9688C75.2542 24.9123 75.3574 24.8239 75.489 24.7003L75.1759 25.0006L76.9798 23.3435C77.0474 23.2799 77.0687 23.2375 77.0438 23.2093C75.674 21.7889 73.9947 21.0752 71.9987 21.0752C71.3049 21.0752 70.6644 21.1635 70.0809 21.3402C69.4974 21.5168 68.9708 21.7854 68.5083 22.1422C67.5085 22.8595 67.0069 23.8276 67.0069 25.0395C67.0069 26.2514 67.384 27.1347 68.1418 27.7424C68.7538 28.2582 69.7714 28.6787 71.1946 28.9931C71.867 29.1521 72.4221 29.2899 72.8561 29.4136C73.2902 29.5337 73.6033 29.6539 73.799 29.7705L73.7883 29.7599C74.29 30.0072 74.539 30.4029 74.539 30.94C74.539 31.4311 74.3291 31.8021 73.9093 32.0565C73.4894 32.3108 72.8668 32.438 72.0485 32.438C71.312 32.438 70.6466 32.3108 70.056 32.06C69.4654 31.8091 68.9317 31.4311 68.4514 30.9258L68.3873 30.8622L66.5336 32.5087L66.555 32.4981C66.491 32.5546 66.4696 32.6006 66.4803 32.643C67.1136 33.4026 67.8821 33.9856 68.7929 34.3954C69.7038 34.8053 70.732 35.0102 71.8777 35.0102C72.7885 35.0102 73.5891 34.9148 74.2864 34.724C74.9802 34.5332 75.5673 34.24 76.0476 33.8407C76.93 33.1164 77.3712 32.0953 77.3712 30.7774C77.3712 30.1344 77.2466 29.5655 76.9976 29.0638C76.7485 28.5621 76.3821 28.1381 75.9017 27.7848L75.9088 27.7919Z" fill="white"/>
<path d="M92.7166 32.0638H82.6156V28.9793H90.3826C90.4786 28.9793 90.5285 28.9298 90.5285 28.8344V26.34C90.5285 26.2587 90.4893 26.2163 90.4146 26.2163H82.6191V24.0752H92.5636C92.6276 24.0752 92.6561 24.0469 92.6561 23.9939V21.4359C92.6561 21.3652 92.6241 21.3193 92.5636 21.291V21.3016H81.3703C80.3776 21.3016 79.8795 21.8351 79.8795 22.9057V33.2474C79.8795 34.2897 80.3776 34.8091 81.3703 34.8091H92.7202C92.7415 34.8091 92.7522 34.7809 92.7522 34.7279V32.1415C92.7522 32.0921 92.7415 32.0673 92.7202 32.0673L92.7166 32.0638Z" fill="white"/>
<path d="M114.961 34.703L114.982 34.7348L111.542 29.5092C113.402 28.792 114.335 27.4529 114.335 25.4919C114.335 24.167 113.851 23.1176 112.887 22.3438C112.026 21.6548 110.908 21.3086 109.542 21.3086H96.3279C95.3352 21.3086 94.8371 21.8421 94.8371 22.9127V34.703C94.8371 34.7596 94.8585 34.7843 94.9011 34.7843H97.5056C97.5554 34.7843 97.5803 34.756 97.5803 34.703V29.8802H108.649L111.819 34.7348C111.855 34.7702 111.922 34.7878 112.029 34.7878H114.989C115.018 34.7878 115.011 34.7596 114.968 34.7066L114.961 34.703ZM109.499 27.414L109.478 27.4458H97.5767V23.8843H109.478C110.855 23.8843 111.542 24.4426 111.542 25.5626C111.542 26.831 110.862 27.4493 109.499 27.414Z" fill="white"/>
<path d="M97.9788 11.9354H114.356V4.27896H112.097V9.68125H97.9788V4.27896H82.2135C80.1997 4.27896 78.6449 4.74181 77.549 5.66751C76.4532 6.59322 75.9053 7.89344 75.9053 9.56819C75.9053 9.61059 75.9053 9.64592 75.9088 9.68125H73.2368V5.72405H70.9775V9.68125H35.6969V4.22949L33.4696 5.72758V20.0901L35.6969 18.3023V11.939H68.3161H76.3286H97.9788V11.9354ZM78.41 9.68125V9.63179C78.41 8.57889 78.7409 7.79805 79.4063 7.28926C80.0716 6.77694 81.0073 6.52255 82.2135 6.52255H95.3388V9.68125H78.41Z" fill="white"/>
<path d="M110.345 16.8312C110.748 15.8667 110.286 14.761 109.315 14.3615C108.344 13.962 107.23 14.42 106.828 15.3845C106.426 16.349 106.887 17.4547 107.858 17.8542C108.829 18.2537 109.943 17.7957 110.345 16.8312Z" fill="white"/>
<path d="M65.381 17.9523C66.4041 17.7125 67.0378 16.6944 66.7963 15.6783C66.5548 14.6623 65.5296 14.033 64.5065 14.2728C63.4833 14.5126 62.8496 15.5307 63.0911 16.5468C63.3326 17.5628 64.3578 18.1921 65.381 17.9523Z" fill="white"/>
<path d="M61.1327 17.9983C62.184 17.9983 63.0362 17.152 63.0362 16.108C63.0362 15.0641 62.184 14.2178 61.1327 14.2178C60.0814 14.2178 59.2292 15.0641 59.2292 16.108C59.2292 17.152 60.0814 17.9983 61.1327 17.9983Z" fill="white"/>
<path d="M11.0083 0H10.0547V11.4052C7.87728 11.5713 5.80655 12.3133 4.04181 13.5075C3.97065 13.5499 3.90305 13.5994 3.83545 13.6453C3.3658 13.9774 2.91394 14.3413 2.49766 14.7406C2.49055 14.7441 2.49055 14.7477 2.48699 14.7477C2.25928 14.9597 2.03513 15.1823 1.82877 15.4154C1.23815 16.0514 0.722246 16.7616 0.273944 17.5248L0.00354004 17.9947L0.273944 18.4682C1.04958 19.8108 2.06715 20.9732 3.2555 21.9166C3.31599 21.9625 3.37647 22.012 3.44052 22.0579C4.02758 22.5066 4.65378 22.9023 5.30844 23.2415C5.48634 23.3334 5.66424 23.4182 5.84569 23.503C7.16213 24.1036 8.58531 24.4817 10.0583 24.5912V35.9929H11.0118C17.8502 35.9929 23.4148 30.467 23.4148 23.6797C23.4148 21.6904 22.9274 19.733 22.013 17.9912C22.931 16.2493 23.4148 14.299 23.4148 12.3062C23.4113 5.52596 17.8466 0 11.0083 0ZM8.31846 13.617C8.38962 13.6347 8.46434 13.617 8.53194 13.564C8.68849 13.5252 8.84504 13.4898 9.00515 13.458C9.12612 13.4651 9.24353 13.4969 9.31113 13.5534C9.4321 13.6488 9.56375 13.6418 9.66693 13.5358C9.71674 13.4863 9.73809 13.4156 9.73809 13.345C9.98358 13.3132 10.2326 13.2884 10.4817 13.2778C10.4746 13.2955 10.4675 13.3167 10.4675 13.3379C10.4675 13.4404 10.4212 13.504 10.3572 13.5676C9.94089 13.9845 9.52461 14.4049 9.10833 14.8254C8.96957 14.9632 8.86639 14.9632 8.72763 14.8254C8.38962 14.4827 8.04806 14.14 7.71006 13.8008C7.9093 13.7336 8.10855 13.6771 8.31135 13.6206L8.31846 13.617ZM11.1826 22.7327C11.1257 22.7363 11.0688 22.7363 11.0083 22.7363C10.6632 22.7363 10.3145 22.7222 9.97291 22.6833C10.2255 22.4289 10.4746 22.178 10.7272 21.9236C10.7877 21.8636 10.8411 21.8176 10.9407 21.8212C11.0759 21.8212 11.1755 21.701 11.1755 21.5703C11.1755 21.5385 11.1684 21.5103 11.1577 21.482C11.0439 21.4926 10.9264 21.4997 10.8055 21.4997C10.7592 21.4997 10.713 21.4961 10.6667 21.4926C10.6632 21.5103 10.6525 21.5244 10.6525 21.5456C10.6489 21.6269 10.6382 21.694 10.5778 21.754C10.2789 22.0544 9.98003 22.3547 9.68116 22.655C9.19016 22.5914 8.7134 22.4925 8.24375 22.3653C8.04806 22.1674 7.84882 21.9696 7.65313 21.7717C7.5962 21.7116 7.56418 21.6551 7.56418 21.5668C7.56418 21.4078 7.45033 21.3053 7.29733 21.3089C7.16925 21.3089 7.05184 21.4184 7.04116 21.5491C7.02693 21.6834 7.12655 21.8141 7.27599 21.8212C7.37205 21.8247 7.42898 21.8706 7.48946 21.9307C7.58909 22.0296 7.68871 22.1286 7.78477 22.231C6.49324 21.8141 5.30132 21.1534 4.2624 20.2878C4.62531 19.9203 4.99178 19.5529 5.35469 19.1854C5.41874 19.1218 5.48278 19.0759 5.5824 19.0759C5.72828 19.0759 5.81011 18.9628 5.81367 18.8179C5.81367 18.6766 5.72116 18.5741 5.57884 18.5635C5.44008 18.5494 5.32267 18.6342 5.312 18.7791C5.30488 18.8886 5.2693 18.9628 5.19103 19.037C4.821 19.4045 4.45809 19.7754 4.09162 20.1429C3.67178 19.779 3.28041 19.3762 2.92106 18.9451C3.18079 18.9451 3.43696 18.9451 3.69669 18.9451C3.81054 18.9451 3.92796 18.9204 4.00979 19.0441C4.03114 19.0759 4.09874 19.0759 4.12364 19.0829C4.28375 19.0829 4.36914 19.0158 4.40828 18.8886C4.44386 18.772 4.39761 18.6731 4.30866 18.6095C4.20548 18.5388 4.08095 18.5353 3.98844 18.6307C3.91728 18.7049 3.84257 18.7155 3.75006 18.7155C3.41205 18.7155 3.07761 18.7155 2.7396 18.7155C2.55459 18.4858 2.38381 18.2491 2.2237 18.0018C2.41227 17.7191 2.60796 17.4471 2.81788 17.1856C3.00289 17.3729 3.1879 17.5601 3.37647 17.7474C3.42984 17.8004 3.46542 17.8498 3.46542 17.9346C3.47254 18.0866 3.58639 18.1855 3.72515 18.182C3.86747 18.1749 3.97777 18.0618 3.97777 17.9205C3.97777 17.7756 3.8817 17.659 3.72871 17.6626C3.62553 17.6661 3.56505 17.6202 3.501 17.553C3.31955 17.3693 3.14165 17.1891 2.96019 17.0089C3.15588 16.7757 3.36224 16.5496 3.57928 16.3376C3.6113 16.3518 3.64332 16.3588 3.68246 16.3588C3.76073 16.3588 3.81766 16.3871 3.87103 16.4436C4.30154 16.8782 4.73205 17.3128 5.16612 17.7474C5.20882 17.7933 5.23728 17.8357 5.24084 17.9064C5.24084 18.0654 5.34046 18.1749 5.47211 18.182C5.62154 18.1926 5.73539 18.0901 5.75318 17.9134C5.7603 17.8392 5.78876 17.7898 5.83857 17.7403C6.27264 17.3057 6.70316 16.8711 7.13367 16.433C7.17636 16.3906 7.21906 16.3553 7.29022 16.3553C7.46456 16.3553 7.56062 16.2493 7.56062 16.0868C7.56062 15.9454 7.44677 15.8288 7.30801 15.8288C7.17281 15.8288 7.04828 15.9454 7.04472 16.1009C7.04472 16.1751 7.02337 16.2281 6.97 16.2776C6.53593 16.7121 6.10542 17.1467 5.67491 17.5848C5.62154 17.6378 5.56817 17.6838 5.47922 17.6555C5.39383 17.6979 5.35469 17.6272 5.30488 17.5742C4.88504 17.1503 4.46876 16.7263 4.04537 16.3058C3.98488 16.2458 3.94219 16.1892 3.9493 16.0903C3.9493 16.055 3.94575 16.0232 3.93507 15.9914C4.21615 15.737 4.51502 15.4967 4.82456 15.2741C4.90639 15.2741 4.98823 15.2741 5.07006 15.2741C5.2017 15.2741 5.3369 15.2459 5.43297 15.3801C5.46143 15.419 5.52192 15.419 5.57173 15.419C5.71049 15.419 5.78521 15.3342 5.82079 15.2141C5.85636 15.0939 5.79588 15.0021 5.70693 14.942C5.60731 14.8749 5.48634 14.8713 5.40095 14.9667C5.34402 15.0303 5.29065 15.0445 5.21238 15.0445C5.19459 15.0445 5.17324 15.0445 5.15545 15.0445C5.51124 14.8077 5.87771 14.5922 6.25485 14.3979C6.4541 14.5957 6.64979 14.7971 6.84903 14.995C6.90596 15.0515 6.94154 15.1081 6.9451 15.1964C6.95221 15.3377 7.08386 15.4402 7.22262 15.4296C7.3507 15.419 7.461 15.3024 7.461 15.1717C7.461 15.0303 7.36138 14.9067 7.2155 14.9102C7.11944 14.9102 7.06251 14.8749 7.00202 14.8113C6.83124 14.6381 6.6569 14.465 6.48612 14.2883C6.80989 14.1294 7.14434 13.9916 7.48591 13.8679C7.85949 14.246 8.22952 14.6205 8.6031 14.995C8.6031 14.995 8.60666 15.0021 8.61022 15.0056H9.26132C9.26132 15.0056 9.26844 14.995 9.27199 14.9915C9.70606 14.5569 10.1366 14.1223 10.5671 13.6877C10.6169 13.6382 10.6632 13.6064 10.7379 13.61C10.8944 13.61 10.9905 13.511 10.994 13.3662C10.994 13.3308 10.9905 13.2955 10.9798 13.2637H11.0154C11.3783 13.2637 11.7377 13.2849 12.0899 13.3202C12.0792 13.4192 12.033 13.4863 11.9689 13.5534C11.5989 13.9244 11.2289 14.2954 10.8624 14.6699C10.9691 14.6699 11.0688 14.677 11.1684 14.6841C11.4993 14.3519 11.8266 14.0198 12.1575 13.6912C12.2749 13.5711 12.4137 13.5746 12.5346 13.6948C12.9545 14.1188 13.3743 14.5427 13.7977 14.9667C13.8546 15.0268 13.8867 15.0833 13.8867 15.1717C13.8867 15.3307 14.0005 15.4331 14.1535 15.4296C14.2816 15.4296 14.399 15.3201 14.4097 15.1893C14.4239 15.0551 14.3243 14.9243 14.1748 14.9173C14.0788 14.9102 14.0219 14.8678 13.9614 14.8077C13.5415 14.3837 13.1217 13.9598 12.7019 13.5393C12.6592 13.4969 12.6307 13.4474 12.6129 13.3944C13.2854 13.4969 13.94 13.663 14.5662 13.8891C14.9042 14.2318 15.2458 14.5745 15.5838 14.9173C15.6656 14.9985 15.7439 15.0692 15.7403 15.2141C15.7332 15.3519 15.8827 15.4543 16.0179 15.4437C16.1531 15.4296 16.2491 15.3236 16.2527 15.1858C16.2527 15.0445 16.1673 14.9314 16.025 14.9279C15.9289 14.9279 15.872 14.8855 15.8115 14.8254C15.5696 14.5816 15.3312 14.3378 15.0892 14.0976C16.8682 14.8431 18.423 16.0691 19.5616 17.6555C19.4975 17.652 19.4299 17.6732 19.373 17.7262C19.3019 17.7933 19.2343 17.8004 19.1489 17.8004C18.6828 17.8004 18.2167 17.8004 17.7506 17.8004C17.6367 17.8004 17.5193 17.8251 17.4375 17.7014C17.4161 17.6696 17.3485 17.6696 17.3236 17.6626C17.1635 17.6626 17.0781 17.7297 17.039 17.8569C17.0034 17.9735 17.0497 18.0724 17.1386 18.136C17.2418 18.2067 17.3663 18.2102 17.4588 18.1148C17.53 18.0406 17.6047 18.03 17.6972 18.03C18.1811 18.03 18.6614 18.03 19.1453 18.03C19.2307 18.03 19.3019 18.0406 19.3695 18.1078C19.4762 18.2102 19.6327 18.1996 19.7288 18.1007C19.7608 18.0689 19.7751 18.03 19.7893 17.9876C19.7893 17.9876 19.7893 17.9876 19.7893 17.9912C19.7928 17.9947 19.7964 18.0018 19.8 18.0053C19.4513 18.5388 19.0564 19.0335 18.6223 19.4857C18.4373 19.2985 18.2558 19.1147 18.0708 18.9275C18.0174 18.8745 17.9819 18.825 17.9819 18.7402C17.9747 18.5883 17.8609 18.4894 17.7221 18.4929C17.5798 18.5 17.4695 18.613 17.4695 18.7543C17.4695 18.8992 17.5656 19.0158 17.7186 19.0123C17.8217 19.0087 17.8822 19.0547 17.9463 19.1218C18.1206 19.2985 18.295 19.4751 18.4693 19.6482C18.4586 19.6588 18.4479 19.673 18.4337 19.6836C18.1953 19.9238 17.9392 20.15 17.6794 20.362C17.6438 20.3478 17.6083 20.3302 17.5762 20.2984C17.1457 19.8638 16.7152 19.4292 16.2812 18.9946C16.2385 18.9487 16.21 18.9063 16.2064 18.8356C16.2064 18.6766 16.1068 18.5671 15.9752 18.56C15.8257 18.5494 15.7119 18.6519 15.6941 18.8285C15.687 18.9027 15.6585 18.9522 15.6087 19.0017C15.1746 19.4363 14.7441 19.8708 14.3136 20.309C14.2709 20.3514 14.2282 20.3867 14.1571 20.3867C13.9827 20.3867 13.8867 20.4927 13.8867 20.6552C13.8867 20.7965 14.0005 20.9131 14.1393 20.9131C14.2745 20.9131 14.399 20.7965 14.4026 20.6411C14.4026 20.5669 14.4239 20.5139 14.4773 20.4644C14.9113 20.0298 15.3419 19.5953 15.7724 19.1571C15.8257 19.1041 15.8791 19.0582 15.9681 19.0865C16.0534 19.0441 16.0926 19.1147 16.1424 19.1677C16.5622 19.5917 16.9785 20.0157 17.4019 20.4362C17.4339 20.468 17.4588 20.4962 17.4766 20.528C17.0461 20.8601 16.5836 21.164 16.1068 21.4255C16.1068 21.4255 16.1068 21.4255 16.1033 21.4255C16.0748 21.4078 16.0463 21.3866 16.025 21.3513C15.9965 21.3124 15.936 21.3124 15.8862 21.3124C15.7475 21.3124 15.6727 21.3972 15.6372 21.5173C15.6194 21.5739 15.6265 21.6233 15.6443 21.6657C15.3917 21.7894 15.1391 21.9024 14.8758 22.0049C14.7868 21.9166 14.6979 21.8247 14.6089 21.7364C14.552 21.6799 14.5164 21.6233 14.5129 21.535C14.5057 21.3937 14.3741 21.2912 14.2353 21.3018C14.1072 21.3124 13.997 21.429 13.997 21.5597C13.997 21.7011 14.0966 21.8247 14.2424 21.8212C14.3385 21.8212 14.3954 21.8565 14.4559 21.9201C14.5129 21.9802 14.5733 22.0367 14.6303 22.0968C14.2745 22.2275 13.9151 22.337 13.5451 22.4289C13.3138 22.1957 13.0861 21.966 12.8548 21.7328C12.8122 21.6904 12.7801 21.6481 12.7801 21.5739C12.7801 21.4149 12.6841 21.3089 12.5489 21.2983C12.4101 21.2841 12.2856 21.3866 12.2642 21.5456C12.2536 21.6198 12.2429 21.6834 12.186 21.7399C11.8551 22.072 11.5277 22.4042 11.1968 22.7363H11.1933L11.1826 22.7327ZM11.5135 22.7257C11.7839 22.4536 12.0508 22.1816 12.3212 21.913C12.4599 21.7752 12.5631 21.7752 12.7019 21.913C12.8904 22.1038 13.0826 22.2946 13.2711 22.4854C12.6983 22.6162 12.1112 22.6939 11.5135 22.7222V22.7257ZM11.9618 34.0638V24.5983C13.3458 24.4923 14.6836 24.1566 15.9289 23.6161C15.9645 23.6373 16.0036 23.6549 16.0463 23.6514C16.1602 23.6514 16.2669 23.5595 16.2989 23.45C16.2989 23.45 16.3025 23.45 16.3061 23.45C16.6014 23.3157 16.8896 23.1638 17.1706 22.9977C17.2418 22.9624 17.313 22.9235 17.3806 22.8776C18.0672 22.4713 18.7077 21.9978 19.3019 21.4608C19.3623 21.4184 19.4157 21.3654 19.4726 21.3089C19.9423 20.8743 20.3799 20.3973 20.7784 19.892C21.2516 21.0898 21.5007 22.383 21.5007 23.6867C21.5007 29.1138 17.3058 33.5833 11.9582 34.0638H11.9618ZM20.7784 16.1115C20.2056 15.3836 19.5545 14.7265 18.8464 14.1576C18.7859 14.1011 18.7219 14.0516 18.6579 14.0057C18.4835 13.8644 18.3021 13.7336 18.1206 13.61C17.9463 13.4828 17.7648 13.3662 17.5834 13.2531C15.904 12.2037 13.9756 11.5607 11.9618 11.4052V1.93974C17.3058 2.42026 21.5042 6.88978 21.5042 12.3168C21.5042 13.6241 21.2587 14.9102 20.782 16.1115H20.7784Z" fill="white"/>
<path d="M12.5738 20.3836C12.6628 20.3235 12.7446 20.2635 12.8264 20.1963C12.8264 20.1963 12.8264 20.1928 12.83 20.1928C12.983 20.0692 13.1182 19.9314 13.2356 19.783C13.6341 19.2954 13.8689 18.6735 13.8689 18.0022C13.8689 17.9033 13.8618 17.8044 13.8476 17.709C13.8333 17.5712 13.8049 17.4369 13.7693 17.3026C13.7586 17.2638 13.7444 17.2178 13.7337 17.179C13.7266 17.2002 13.7124 17.2178 13.7017 17.2355C13.6697 17.3062 13.6305 17.3698 13.5772 17.4298C13.3921 17.6842 13.1217 17.868 12.8122 17.9528C12.6912 17.9881 12.5667 18.0058 12.4386 18.0058C12.3959 18.0058 12.3461 18.0022 12.3034 17.9987C11.5776 17.9316 11.0083 17.3309 11.0083 16.5854C11.0083 16.5607 11.0083 16.5395 11.0119 16.5147C11.0154 16.4158 11.0332 16.3169 11.0581 16.225C11.1471 15.8823 11.3641 15.5926 11.6559 15.4053C11.7128 15.3664 11.7697 15.3311 11.8338 15.3028C11.7306 15.271 11.6238 15.2392 11.5135 15.2251C11.3499 15.1862 11.1791 15.165 11.0048 15.165C10.93 15.165 10.8589 15.1686 10.7842 15.1756C10.6098 15.1827 10.4426 15.2145 10.2789 15.2604C9.82352 15.3735 9.41435 15.5996 9.07991 15.907C8.83441 16.1331 8.62093 16.3981 8.46438 16.6985C8.29716 17.0164 8.19042 17.3698 8.1584 17.7478C8.14772 17.8326 8.14417 17.921 8.14417 18.0093C8.14417 18.0375 8.14417 18.0658 8.14772 18.0941C8.1833 19.4473 9.16885 20.5603 10.4675 20.8005C10.5956 20.8253 10.7237 20.8394 10.8589 20.8429C10.9051 20.85 10.9549 20.85 11.0048 20.85C11.4495 20.85 11.8765 20.7475 12.2536 20.5638C12.3639 20.5108 12.4742 20.4543 12.5738 20.3907V20.3836Z" fill="white"/>
<path d="M16.0285 16.3586C16.1993 16.3586 16.3061 16.2455 16.3025 16.0936C16.3025 15.9664 16.1886 15.8428 16.0641 15.8322C15.9254 15.818 15.7866 15.9417 15.7795 16.1007C15.7795 16.1749 15.7581 16.2243 15.7048 16.2773C15.3525 16.6307 15.0038 16.984 14.6516 17.3408V17.6624C15.0572 17.256 15.4628 16.8462 15.8684 16.4363C15.9111 16.3904 15.9538 16.3621 16.025 16.3621L16.0285 16.3586Z" fill="white"/>
<path d="M15.8578 17.659C15.7119 17.659 15.6301 17.7721 15.6265 17.9169C15.6265 18.0583 15.719 18.1607 15.8614 18.1713C16.0001 18.1855 16.1175 18.1007 16.1282 17.9558C16.1353 17.8463 16.1709 17.7721 16.2492 17.6979C16.669 17.281 17.0817 16.8605 17.498 16.4401C17.6225 16.3164 17.7613 16.3164 17.8858 16.4401C17.9961 16.5496 18.1029 16.6626 18.2167 16.7722C18.2808 16.8358 18.327 16.8958 18.327 17.0018C18.327 17.1608 18.448 17.2633 18.5939 17.2598C18.7291 17.2598 18.8358 17.1538 18.8465 17.023C18.8571 16.8782 18.7611 16.7616 18.6045 16.7368C18.5547 16.7298 18.5049 16.7368 18.4658 16.698C18.3092 16.539 18.1527 16.38 17.9926 16.2245C17.957 16.1892 17.957 16.1468 17.9534 16.1009C17.9428 15.9348 17.8467 15.8323 17.6973 15.8253C17.5621 15.8217 17.434 15.9419 17.4304 16.0938C17.4304 16.1786 17.3948 16.2281 17.3415 16.2811C16.9216 16.705 16.5018 17.1255 16.0819 17.5495C16.0179 17.6131 15.9539 17.659 15.8542 17.659H15.8578Z" fill="white"/>
<path d="M5.87061 15.9033C5.83503 15.928 5.81013 15.974 5.76032 15.9704C5.52193 15.9386 5.2622 16.0552 5.04517 15.868C5.01671 15.8432 4.97401 15.8397 4.94555 15.8291C4.83169 15.8503 4.74274 15.8892 4.70361 15.9952C4.65735 16.1082 4.6787 16.2142 4.76765 16.3026C4.84948 16.3803 4.97757 16.4121 5.04161 16.345C5.22662 16.1436 5.45077 16.2284 5.66425 16.2107C5.74608 16.2036 5.81013 16.2248 5.87417 16.2849C5.9987 16.4015 6.13746 16.3944 6.2442 16.2849C6.3367 16.193 6.34026 16.0199 6.24775 15.9174C6.15169 15.8079 6.01293 15.8044 5.87417 15.9068L5.87061 15.9033Z" fill="white"/>
<path d="M7.20839 19.0757C7.27954 19.0509 7.3258 19.0898 7.36849 19.1357C7.42186 19.1922 7.47523 19.2452 7.53216 19.3018V18.9697C7.49302 18.9237 7.46456 18.8778 7.461 18.8107C7.45388 18.6517 7.3507 18.5563 7.21194 18.5527C7.06963 18.5527 6.96644 18.6481 6.95577 18.8071C6.94866 18.8778 6.92731 18.9343 6.8775 18.9838C6.43987 19.4219 6.00224 19.8636 5.56817 20.3017C5.52548 20.3476 5.48278 20.3759 5.41162 20.3759C5.24084 20.3759 5.1341 20.4889 5.13766 20.6409C5.13766 20.7681 5.25151 20.8917 5.37604 20.9023C5.5148 20.9165 5.65356 20.7928 5.66068 20.6338C5.66068 20.5596 5.68203 20.5101 5.7354 20.4571C6.17302 20.019 6.60709 19.5809 7.04116 19.1392C7.09097 19.0898 7.14078 19.0474 7.2155 19.0721L7.20839 19.0757Z" fill="white"/>
<path d="M8.64581 20.7403C8.56398 20.6661 8.48214 20.5919 8.40743 20.5106C8.00538 20.5106 7.60333 20.5106 7.19772 20.5106C7.10522 20.5106 7.02694 20.5 6.95578 20.4294C6.88107 20.3552 6.78144 20.3481 6.6925 20.394C6.60355 20.44 6.53239 20.5142 6.54662 20.6484C6.53595 20.7615 6.59999 20.8392 6.70673 20.8851C6.80991 20.9311 6.90953 20.9028 6.97713 20.818C7.03406 20.7509 7.0981 20.7368 7.17993 20.7368C7.55708 20.7368 7.93422 20.7368 8.31492 20.7368C8.42522 20.7368 8.53551 20.7262 8.64225 20.7368L8.64581 20.7403Z" fill="white"/>
<path d="M15.566 20.8318C15.6016 20.807 15.6265 20.7611 15.6763 20.7646C15.9147 20.7964 16.1745 20.6798 16.3915 20.8671C16.42 20.8918 16.4626 20.8953 16.4911 20.9059C16.605 20.8847 16.6939 20.8459 16.7331 20.7399C16.7793 20.6268 16.758 20.5208 16.669 20.4325C16.5872 20.3548 16.4591 20.323 16.395 20.3901C16.21 20.5915 15.9859 20.5067 15.7724 20.5244C15.6906 20.5314 15.6265 20.5102 15.5625 20.4502C15.438 20.3336 15.2992 20.3406 15.1925 20.4502C15.1 20.542 15.0964 20.7152 15.1889 20.8176C15.285 20.9271 15.4237 20.9307 15.5625 20.8282L15.566 20.8318Z" fill="white"/>
<path d="M9.83059 21.3693C9.76298 21.3516 9.69894 21.3339 9.6349 21.3092C9.58153 21.3163 9.52816 21.3339 9.48546 21.3728C9.45344 21.4011 9.43921 21.4576 9.38584 21.4505C9.15458 21.4152 8.8984 21.5565 8.69204 21.3481C8.66002 21.3163 8.59954 21.3163 8.57463 21.3057C8.41808 21.3092 8.33625 21.3834 8.29711 21.5071C8.25797 21.6272 8.3149 21.7191 8.40385 21.7826C8.50347 21.8533 8.63156 21.8568 8.70983 21.7685C8.78455 21.6873 8.85927 21.6873 8.94466 21.6873C9.06207 21.6873 9.17948 21.6873 9.29334 21.6873C9.37517 21.6873 9.43565 21.7014 9.4997 21.7615C9.60288 21.8639 9.76298 21.8462 9.85549 21.7403C9.95511 21.6307 9.948 21.4859 9.84482 21.3799C9.84126 21.3763 9.83414 21.3728 9.83059 21.3693Z" fill="white"/>
</g>
<defs>
<clipPath id="clip0_1_32">
<rect width="115" height="36" fill="white"/>
</clipPath>
</defs>
</svg>
